# MagicaVoxel @ Ephtracy

# group
o 

# material
mtllib laneroad1.mtl
usemtl palette

# normals
vn -1 0 0
vn 1 0 0
vn 0 0 1
vn 0 0 -1
vn 0 -1 0
vn 0 1 0

# texcoords
vt 0.470703 0.5
vt 0.541016 0.5
vt 0.572266 0.5
vt 0.576172 0.5

# verts
v 0 2 0
v 0 2 -9.6
v 0 2.1 0
v 0 2.1 -9.6
v 0 2.2 0
v 0 2.2 -9.6
v 0.8 2 0
v 0.8 2 -9.6
v 0.8 2.1 0
v 0.8 2.1 -0.2
v 0.8 2.1 -0.6
v 0.8 2.1 -1
v 0.8 2.1 -1.4
v 0.8 2.1 -1.8
v 0.8 2.1 -2.2
v 0.8 2.1 -2.6
v 0.8 2.1 -3
v 0.8 2.1 -3.4
v 0.8 2.1 -3.8
v 0.8 2.1 -4.2
v 0.8 2.1 -4.6
v 0.8 2.1 -5
v 0.8 2.1 -5.4
v 0.8 2.1 -5.8
v 0.8 2.1 -6.2
v 0.8 2.1 -6.6
v 0.8 2.1 -7
v 0.8 2.1 -7.4
v 0.8 2.1 -7.8
v 0.8 2.1 -8.2
v 0.8 2.1 -8.6
v 0.8 2.1 -9
v 0.8 2.1 -9.4
v 0.8 2.2 0
v 0.8 2.2 -0.2
v 0.8 2.2 -0.6
v 0.8 2.2 -1
v 0.8 2.2 -1.4
v 0.8 2.2 -1.8
v 0.8 2.2 -2.2
v 0.8 2.2 -2.6
v 0.8 2.2 -3
v 0.8 2.2 -3.4
v 0.8 2.2 -3.8
v 0.8 2.2 -4.2
v 0.8 2.2 -4.6
v 0.8 2.2 -5
v 0.8 2.2 -5.4
v 0.8 2.2 -5.8
v 0.8 2.2 -6.2
v 0.8 2.2 -6.6
v 0.8 2.2 -7
v 0.8 2.2 -7.4
v 0.8 2.2 -7.8
v 0.8 2.2 -8.2
v 0.8 2.2 -8.6
v 0.8 2.2 -9
v 0.8 2.2 -9.4
v 0.8 2.2 -9.6
v 0 2 0
v 0 2.1 0
v 0 2.2 0
v 0.8 2 0
v 0.8 2.1 0
v 0.8 2.2 0
v 0 2 -9.6
v 0 2.1 -9.6
v 0 2.2 -9.6
v 0.7 2.1 -9.6
v 0.7 2.2 -9.6
v 0.8 2 -9.6
v 0.8 2.2 -9.6
v 0 2 0
v 0.8 2 0
v 0 2 -9.6
v 0.8 2 -9.6
v 0 2.2 0
v 0.8 2.2 0
v 0.7 2.2 -0.2
v 0.8 2.2 -0.2
v 0.7 2.2 -0.6
v 0.8 2.2 -0.6
v 0.7 2.2 -1
v 0.8 2.2 -1
v 0.7 2.2 -1.4
v 0.8 2.2 -1.4
v 0.7 2.2 -1.8
v 0.8 2.2 -1.8
v 0.7 2.2 -2.2
v 0.8 2.2 -2.2
v 0.2 2.2 -2.4
v 0.6 2.2 -2.4
v 0.7 2.2 -2.6
v 0.8 2.2 -2.6
v 0.7 2.2 -3
v 0.8 2.2 -3
v 0.7 2.2 -3.4
v 0.8 2.2 -3.4
v 0.7 2.2 -3.8
v 0.8 2.2 -3.8
v 0.3 2.2 -4.2
v 0.6 2.2 -4.2
v 0.7 2.2 -4.2
v 0.8 2.2 -4.2
v 0.7 2.2 -4.6
v 0.8 2.2 -4.6
v 0.7 2.2 -5
v 0.8 2.2 -5
v 0.7 2.2 -5.4
v 0.8 2.2 -5.4
v 0.7 2.2 -5.8
v 0.8 2.2 -5.8
v 0.7 2.2 -6.2
v 0.8 2.2 -6.2
v 0.7 2.2 -6.6
v 0.8 2.2 -6.6
v 0.2 2.2 -6.7
v 0.3 2.2 -6.7
v 0.7 2.2 -7
v 0.8 2.2 -7
v 0.7 2.2 -7.4
v 0.8 2.2 -7.4
v 0.7 2.2 -7.8
v 0.8 2.2 -7.8
v 0.7 2.2 -8.2
v 0.8 2.2 -8.2
v 0.7 2.2 -8.6
v 0.8 2.2 -8.6
v 0.7 2.2 -9
v 0.8 2.2 -9
v 0.7 2.2 -9.4
v 0.8 2.2 -9.4
v 0 2.2 -9.6
v 0.7 2.2 -9.6
v 0.8 2.2 -9.6

# faces
f 3/3/1 2/3/1 1/3/1
f 4/3/1 2/3/1 3/3/1
f 5/2/1 4/2/1 3/2/1
f 6/2/1 4/2/1 5/2/1
f 7/3/2 8/3/2 9/3/2
f 9/3/2 8/3/2 10/3/2
f 10/3/2 8/3/2 11/3/2
f 11/3/2 8/3/2 12/3/2
f 12/3/2 8/3/2 13/3/2
f 13/3/2 8/3/2 14/3/2
f 14/3/2 8/3/2 15/3/2
f 15/3/2 8/3/2 16/3/2
f 16/3/2 8/3/2 17/3/2
f 17/3/2 8/3/2 18/3/2
f 18/3/2 8/3/2 19/3/2
f 19/3/2 8/3/2 20/3/2
f 20/3/2 8/3/2 21/3/2
f 21/3/2 8/3/2 22/3/2
f 22/3/2 8/3/2 23/3/2
f 23/3/2 8/3/2 24/3/2
f 24/3/2 8/3/2 25/3/2
f 25/3/2 8/3/2 26/3/2
f 26/3/2 8/3/2 27/3/2
f 27/3/2 8/3/2 28/3/2
f 28/3/2 8/3/2 29/3/2
f 29/3/2 8/3/2 30/3/2
f 30/3/2 8/3/2 31/3/2
f 31/3/2 8/3/2 32/3/2
f 32/3/2 8/3/2 33/3/2
f 9/2/2 10/2/2 34/2/2
f 10/4/2 11/4/2 35/4/2
f 34/2/2 10/2/2 35/2/2
f 11/2/2 12/2/2 36/2/2
f 35/4/2 11/4/2 36/4/2
f 12/4/2 13/4/2 37/4/2
f 36/2/2 12/2/2 37/2/2
f 13/2/2 14/2/2 38/2/2
f 37/4/2 13/4/2 38/4/2
f 14/4/2 15/4/2 39/4/2
f 38/2/2 14/2/2 39/2/2
f 15/2/2 16/2/2 40/2/2
f 39/4/2 15/4/2 40/4/2
f 16/4/2 17/4/2 41/4/2
f 40/2/2 16/2/2 41/2/2
f 17/2/2 18/2/2 42/2/2
f 41/4/2 17/4/2 42/4/2
f 18/4/2 19/4/2 43/4/2
f 42/2/2 18/2/2 43/2/2
f 19/2/2 20/2/2 44/2/2
f 43/4/2 19/4/2 44/4/2
f 20/4/2 21/4/2 45/4/2
f 44/2/2 20/2/2 45/2/2
f 21/2/2 22/2/2 46/2/2
f 45/4/2 21/4/2 46/4/2
f 22/4/2 23/4/2 47/4/2
f 46/2/2 22/2/2 47/2/2
f 23/2/2 24/2/2 48/2/2
f 47/4/2 23/4/2 48/4/2
f 24/4/2 25/4/2 49/4/2
f 48/2/2 24/2/2 49/2/2
f 25/2/2 26/2/2 50/2/2
f 49/4/2 25/4/2 50/4/2
f 26/4/2 27/4/2 51/4/2
f 50/2/2 26/2/2 51/2/2
f 27/2/2 28/2/2 52/2/2
f 51/4/2 27/4/2 52/4/2
f 28/4/2 29/4/2 53/4/2
f 52/2/2 28/2/2 53/2/2
f 29/2/2 30/2/2 54/2/2
f 53/4/2 29/4/2 54/4/2
f 30/4/2 31/4/2 55/4/2
f 54/2/2 30/2/2 55/2/2
f 31/2/2 32/2/2 56/2/2
f 55/4/2 31/4/2 56/4/2
f 32/4/2 33/4/2 57/4/2
f 56/2/2 32/2/2 57/2/2
f 33/3/2 8/3/2 58/3/2
f 57/4/2 33/4/2 58/4/2
f 58/3/2 8/3/2 59/3/2
f 63/3/3 61/3/3 60/3/3
f 64/2/3 62/2/3 61/2/3
f 64/3/3 61/3/3 63/3/3
f 65/2/3 62/2/3 64/2/3
f 66/3/4 67/3/4 69/3/4
f 67/2/4 68/2/4 69/2/4
f 69/2/4 68/2/4 70/2/4
f 66/3/4 69/3/4 71/3/4
f 69/3/4 70/3/4 71/3/4
f 71/3/4 70/3/4 72/3/4
f 75/3/5 74/3/5 73/3/5
f 76/3/5 74/3/5 75/3/5
f 77/2/6 78/2/6 79/2/6
f 79/2/6 78/2/6 80/2/6
f 77/2/6 79/2/6 81/2/6
f 79/4/6 80/4/6 81/4/6
f 81/4/6 80/4/6 82/4/6
f 77/2/6 81/2/6 83/2/6
f 81/2/6 82/2/6 83/2/6
f 83/2/6 82/2/6 84/2/6
f 77/2/6 83/2/6 85/2/6
f 83/4/6 84/4/6 85/4/6
f 85/4/6 84/4/6 86/4/6
f 77/2/6 85/2/6 87/2/6
f 85/2/6 86/2/6 87/2/6
f 87/2/6 86/2/6 88/2/6
f 77/2/6 87/2/6 89/2/6
f 87/4/6 88/4/6 89/4/6
f 89/4/6 88/4/6 90/4/6
f 77/2/6 89/2/6 91/2/6
f 89/2/6 90/2/6 91/2/6
f 91/2/6 90/2/6 92/2/6
f 92/2/6 90/2/6 93/2/6
f 93/2/6 90/2/6 94/2/6
f 92/2/6 93/2/6 95/2/6
f 93/4/6 94/4/6 95/4/6
f 95/4/6 94/4/6 96/4/6
f 92/2/6 95/2/6 97/2/6
f 95/2/6 96/2/6 97/2/6
f 97/2/6 96/2/6 98/2/6
f 92/2/6 97/2/6 99/2/6
f 97/4/6 98/4/6 99/4/6
f 99/4/6 98/4/6 100/4/6
f 91/1/6 92/1/6 101/1/6
f 92/2/6 99/2/6 102/2/6
f 101/1/6 92/1/6 102/1/6
f 99/2/6 100/2/6 102/2/6
f 102/2/6 100/2/6 103/2/6
f 103/2/6 100/2/6 104/2/6
f 101/2/6 102/2/6 105/2/6
f 102/2/6 103/2/6 105/2/6
f 103/4/6 104/4/6 105/4/6
f 105/4/6 104/4/6 106/4/6
f 101/2/6 105/2/6 107/2/6
f 105/2/6 106/2/6 107/2/6
f 107/2/6 106/2/6 108/2/6
f 101/2/6 107/2/6 109/2/6
f 107/4/6 108/4/6 109/4/6
f 109/4/6 108/4/6 110/4/6
f 101/2/6 109/2/6 111/2/6
f 109/2/6 110/2/6 111/2/6
f 111/2/6 110/2/6 112/2/6
f 101/2/6 111/2/6 113/2/6
f 111/4/6 112/4/6 113/4/6
f 113/4/6 112/4/6 114/4/6
f 101/2/6 113/2/6 115/2/6
f 113/2/6 114/2/6 115/2/6
f 115/2/6 114/2/6 116/2/6
f 77/2/6 91/2/6 117/2/6
f 91/1/6 101/1/6 117/1/6
f 101/2/6 115/2/6 118/2/6
f 117/1/6 101/1/6 118/1/6
f 115/4/6 116/4/6 119/4/6
f 118/2/6 115/2/6 119/2/6
f 117/2/6 118/2/6 119/2/6
f 119/4/6 116/4/6 120/4/6
f 117/2/6 119/2/6 121/2/6
f 119/2/6 120/2/6 121/2/6
f 121/2/6 120/2/6 122/2/6
f 117/2/6 121/2/6 123/2/6
f 121/4/6 122/4/6 123/4/6
f 123/4/6 122/4/6 124/4/6
f 117/2/6 123/2/6 125/2/6
f 123/2/6 124/2/6 125/2/6
f 125/2/6 124/2/6 126/2/6
f 117/2/6 125/2/6 127/2/6
f 125/4/6 126/4/6 127/4/6
f 127/4/6 126/4/6 128/4/6
f 117/2/6 127/2/6 129/2/6
f 127/2/6 128/2/6 129/2/6
f 129/2/6 128/2/6 130/2/6
f 117/2/6 129/2/6 131/2/6
f 129/4/6 130/4/6 131/4/6
f 131/4/6 130/4/6 132/4/6
f 77/2/6 117/2/6 133/2/6
f 117/2/6 131/2/6 133/2/6
f 131/3/6 132/3/6 134/3/6
f 133/2/6 131/2/6 134/2/6
f 134/3/6 132/3/6 135/3/6
