# MagicaVoxel @ Ephtracy

# group
o 

# material
mtllib scar.mtl
usemtl palette

# normals
vn -1 0 0
vn 1 0 0
vn 0 0 1
vn 0 0 -1
vn 0 -1 0
vn 0 1 0

# texcoords
vt 0.00195313 0.5
vt 0.783203 0.5
vt 0.787109 0.5
vt 0.931641 0.5
vt 0.994141 0.5

# verts
v 0 3.2 -0.9
v 0 3.2 -1.2
v 0 3.8 -0.9
v 0 3.8 -1.2
v 0.3 2 -0.3
v 0.3 2 -1.2
v 0.3 2 -2.4
v 0.3 2 -3.3
v 0.3 2.3 0
v 0.3 2.3 -0.3
v 0.3 2.3 -0.6
v 0.3 2.3 -0.9
v 0.3 2.3 -1.2
v 0.3 2.3 -2.4
v 0.3 2.3 -2.7
v 0.3 2.3 -3
v 0.3 2.3 -3.3
v 0.3 2.3 -3.6
v 0.3 2.6 0
v 0.3 2.6 -0.3
v 0.3 2.6 -0.6
v 0.3 2.6 -0.9
v 0.3 2.6 -1.2
v 0.3 2.6 -2.4
v 0.3 2.6 -2.7
v 0.3 2.6 -3
v 0.3 2.6 -3.3
v 0.3 2.6 -3.6
v 0.3 2.9 0
v 0.3 2.9 -0.3
v 0.3 2.9 -1.2
v 0.3 2.9 -2.4
v 0.3 2.9 -3.3
v 0.3 2.9 -3.6
v 0.3 3.2 0
v 0.3 3.2 -0.3
v 0.3 3.2 -0.9
v 0.3 3.2 -1.2
v 0.3 3.5 0
v 0.3 3.5 -0.9
v 0.3 3.5 -1.2
v 0.3 3.5 -2.7
v 0.3 3.5 -3
v 0.3 3.5 -3.6
v 0.3 3.8 -0.9
v 0.3 3.8 -1.2
v 0.3 4.1 -1.2
v 0.3 4.1 -2.7
v 0.3 4.4 -0.9
v 0.3 4.4 -3
v 0.6 3.5 -3.3
v 0.6 3.5 -3.6
v 0.6 3.7 -3.3
v 0.6 3.7 -3.6
v 1.8 2 -0.3
v 1.8 2 -1.2
v 1.8 2 -2.4
v 1.8 2 -3.3
v 1.8 2.3 0
v 1.8 2.3 -0.3
v 1.8 2.3 -1.2
v 1.8 2.3 -2.4
v 1.8 2.3 -3.3
v 1.8 2.6 0
v 1.8 2.6 -0.3
v 0.8 2 -0.3
v 0.8 2 -1.2
v 0.8 2 -2.4
v 0.8 2 -3.3
v 0.8 2.3 0
v 0.8 2.3 -0.3
v 0.8 2.3 -1.2
v 0.8 2.3 -2.4
v 0.8 2.3 -3.3
v 0.8 2.6 0
v 0.8 2.6 -0.3
v 2 3.5 -3.3
v 2 3.5 -3.6
v 2 3.7 -3.3
v 2 3.7 -3.6
v 2.3 2 -0.3
v 2.3 2 -1.2
v 2.3 2 -2.4
v 2.3 2 -3.3
v 2.3 2.3 0
v 2.3 2.3 -0.3
v 2.3 2.3 -0.6
v 2.3 2.3 -0.9
v 2.3 2.3 -1.2
v 2.3 2.3 -2.4
v 2.3 2.3 -2.7
v 2.3 2.3 -3
v 2.3 2.3 -3.3
v 2.3 2.3 -3.6
v 2.3 2.6 0
v 2.3 2.6 -0.3
v 2.3 2.6 -0.6
v 2.3 2.6 -0.9
v 2.3 2.6 -1.2
v 2.3 2.6 -2.4
v 2.3 2.6 -2.7
v 2.3 2.6 -3
v 2.3 2.6 -3.3
v 2.3 2.6 -3.6
v 2.3 2.9 0
v 2.3 2.9 -0.3
v 2.3 2.9 -1.2
v 2.3 2.9 -2.4
v 2.3 2.9 -3.3
v 2.3 2.9 -3.6
v 2.3 3.2 0
v 2.3 3.2 -0.3
v 2.3 3.2 -0.9
v 2.3 3.2 -1.2
v 2.3 3.5 0
v 2.3 3.5 -0.9
v 2.3 3.5 -1.2
v 2.3 3.5 -2.7
v 2.3 3.5 -3
v 2.3 3.5 -3.6
v 2.3 3.8 -0.9
v 2.3 3.8 -1.2
v 2.3 4.1 -1.2
v 2.3 4.1 -2.7
v 2.3 4.4 -0.9
v 2.3 4.4 -3
v 2.6 3.2 -0.9
v 2.6 3.2 -1.2
v 2.6 3.8 -0.9
v 2.6 3.8 -1.2
v 0.3 2.3 0
v 0.3 2.6 0
v 0.3 2.9 0
v 0.3 3.2 0
v 0.3 3.5 0
v 0.6 2.9 0
v 0.6 3.2 0
v 0.6 3.5 0
v 0.8 2.3 0
v 0.8 2.6 0
v 1.8 2.3 0
v 1.8 2.6 0
v 2 2.9 0
v 2 3.2 0
v 2 3.5 0
v 2.3 2.3 0
v 2.3 2.6 0
v 2.3 2.9 0
v 2.3 3.2 0
v 2.3 3.5 0
v 0.3 2 -0.3
v 0.3 2.3 -0.3
v 0.8 2 -0.3
v 0.8 2.3 -0.3
v 0.8 2.6 -0.3
v 1.8 2 -0.3
v 1.8 2.3 -0.3
v 1.8 2.6 -0.3
v 2.3 2 -0.3
v 2.3 2.3 -0.3
v 0 3.2 -0.9
v 0 3.8 -0.9
v 0.3 3.2 -0.9
v 0.3 3.5 -0.9
v 0.3 3.8 -0.9
v 0.3 4.4 -0.9
v 0.6 3.5 -0.9
v 0.6 4.1 -0.9
v 2 3.5 -0.9
v 2 4.1 -0.9
v 2.3 3.2 -0.9
v 2.3 3.5 -0.9
v 2.3 3.8 -0.9
v 2.3 4.4 -0.9
v 2.6 3.2 -0.9
v 2.6 3.8 -0.9
v 0.3 2 -2.4
v 0.3 2.3 -2.4
v 0.8 2 -2.4
v 0.8 2.3 -2.4
v 1.8 2 -2.4
v 1.8 2.3 -2.4
v 2.3 2 -2.4
v 2.3 2.3 -2.4
v 0.6 3.5 -3.3
v 0.6 3.7 -3.3
v 2 3.5 -3.3
v 2 3.7 -3.3
v 0 3.2 -1.2
v 0 3.8 -1.2
v 0.3 2 -1.2
v 0.3 2.3 -1.2
v 0.3 3.2 -1.2
v 0.3 3.5 -1.2
v 0.3 3.8 -1.2
v 0.8 2 -1.2
v 0.8 2.3 -1.2
v 1.8 2 -1.2
v 1.8 2.3 -1.2
v 2.3 2 -1.2
v 2.3 2.3 -1.2
v 2.3 3.2 -1.2
v 2.3 3.5 -1.2
v 2.3 3.8 -1.2
v 2.6 3.2 -1.2
v 2.6 3.8 -1.2
v 0.3 3.5 -3
v 0.3 4.4 -3
v 0.6 3.5 -3
v 0.6 4.1 -3
v 2 3.5 -3
v 2 4.1 -3
v 2.3 3.5 -3
v 2.3 4.4 -3
v 0.3 2 -3.3
v 0.3 2.3 -3.3
v 0.8 2 -3.3
v 0.8 2.3 -3.3
v 1.8 2 -3.3
v 1.8 2.3 -3.3
v 2.3 2 -3.3
v 2.3 2.3 -3.3
v 0.3 2.3 -3.6
v 0.3 2.6 -3.6
v 0.3 2.9 -3.6
v 0.3 3.5 -3.6
v 0.6 2.9 -3.6
v 0.6 3.5 -3.6
v 0.6 3.7 -3.6
v 2 2.9 -3.6
v 2 3.5 -3.6
v 2 3.7 -3.6
v 2.3 2.3 -3.6
v 2.3 2.6 -3.6
v 2.3 2.9 -3.6
v 2.3 3.5 -3.6
v 0.3 2 -0.3
v 0.8 2 -0.3
v 1.8 2 -0.3
v 2.3 2 -0.3
v 0.3 2 -1.2
v 0.8 2 -1.2
v 1.8 2 -1.2
v 2.3 2 -1.2
v 0.3 2 -2.4
v 0.8 2 -2.4
v 1.8 2 -2.4
v 2.3 2 -2.4
v 0.3 2 -3.3
v 0.8 2 -3.3
v 1.8 2 -3.3
v 2.3 2 -3.3
v 0.3 2.3 0
v 0.8 2.3 0
v 1.8 2.3 0
v 2.3 2.3 0
v 0.3 2.3 -0.3
v 0.8 2.3 -0.3
v 1.8 2.3 -0.3
v 2.3 2.3 -0.3
v 0.3 2.3 -1.2
v 0.8 2.3 -1.2
v 1.8 2.3 -1.2
v 2.3 2.3 -1.2
v 0.3 2.3 -2.4
v 0.8 2.3 -2.4
v 1.8 2.3 -2.4
v 2.3 2.3 -2.4
v 0.3 2.3 -3.3
v 0.8 2.3 -3.3
v 1.8 2.3 -3.3
v 2.3 2.3 -3.3
v 0.3 2.3 -3.6
v 2.3 2.3 -3.6
v 0.8 2.6 0
v 1.8 2.6 0
v 0.8 2.6 -0.3
v 1.8 2.6 -0.3
v 0 3.2 -0.9
v 0.3 3.2 -0.9
v 2.3 3.2 -0.9
v 2.6 3.2 -0.9
v 0 3.2 -1.2
v 0.3 3.2 -1.2
v 2.3 3.2 -1.2
v 2.6 3.2 -1.2
v 0.3 3.5 0
v 0.6 3.5 0
v 2 3.5 0
v 2.3 3.5 0
v 0.3 3.5 -0.9
v 0.6 3.5 -0.9
v 2 3.5 -0.9
v 2.3 3.5 -0.9
v 0.3 3.5 -3
v 0.6 3.5 -3
v 2 3.5 -3
v 2.3 3.5 -3
v 0.6 3.5 -3.3
v 2 3.5 -3.3
v 0.3 3.5 -3.6
v 0.6 3.5 -3.6
v 2 3.5 -3.6
v 2.3 3.5 -3.6
v 0.6 3.7 -3.3
v 2 3.7 -3.3
v 0.6 3.7 -3.6
v 2 3.7 -3.6
v 0 3.8 -0.9
v 0.3 3.8 -0.9
v 2.3 3.8 -0.9
v 2.6 3.8 -0.9
v 0 3.8 -1.2
v 0.3 3.8 -1.2
v 2.3 3.8 -1.2
v 2.6 3.8 -1.2
v 0.3 4.4 -0.9
v 2.3 4.4 -0.9
v 0.3 4.4 -3
v 2.3 4.4 -3

# faces
f 3/4/1 2/4/1 1/4/1
f 4/4/1 2/4/1 3/4/1
f 10/5/1 6/5/1 5/5/1
f 11/5/1 6/5/1 10/5/1
f 12/5/1 6/5/1 11/5/1
f 13/5/1 6/5/1 12/5/1
f 14/5/1 8/5/1 7/5/1
f 15/5/1 8/5/1 14/5/1
f 16/5/1 8/5/1 15/5/1
f 17/5/1 8/5/1 16/5/1
f 19/4/1 10/4/1 9/4/1
f 20/5/1 11/5/1 10/5/1
f 20/4/1 10/4/1 19/4/1
f 21/1/1 12/1/1 11/1/1
f 21/5/1 11/5/1 20/5/1
f 22/5/1 13/5/1 12/5/1
f 22/1/1 12/1/1 21/1/1
f 23/4/1 14/4/1 13/4/1
f 23/5/1 13/5/1 22/5/1
f 24/5/1 15/5/1 14/5/1
f 24/4/1 14/4/1 23/4/1
f 25/1/1 16/1/1 15/1/1
f 25/5/1 15/5/1 24/5/1
f 26/5/1 17/5/1 16/5/1
f 26/1/1 16/1/1 25/1/1
f 27/4/1 18/4/1 17/4/1
f 27/5/1 17/5/1 26/5/1
f 28/4/1 18/4/1 27/4/1
f 29/3/1 20/3/1 19/3/1
f 30/5/1 21/5/1 20/5/1
f 30/3/1 20/3/1 29/3/1
f 30/5/1 22/5/1 21/5/1
f 30/5/1 23/5/1 22/5/1
f 31/3/1 24/3/1 23/3/1
f 31/5/1 23/5/1 30/5/1
f 32/5/1 26/5/1 25/5/1
f 32/3/1 24/3/1 31/3/1
f 32/5/1 27/5/1 26/5/1
f 32/5/1 25/5/1 24/5/1
f 33/3/1 28/3/1 27/3/1
f 33/5/1 27/5/1 32/5/1
f 34/3/1 28/3/1 33/3/1
f 35/1/1 30/1/1 29/1/1
f 36/2/1 31/2/1 30/2/1
f 36/1/1 30/1/1 35/1/1
f 36/2/1 32/2/1 31/2/1
f 36/2/1 34/2/1 33/2/1
f 36/2/1 33/2/1 32/2/1
f 37/2/1 34/2/1 36/2/1
f 38/2/1 34/2/1 37/2/1
f 39/2/1 36/2/1 35/2/1
f 39/2/1 37/2/1 36/2/1
f 40/2/1 37/2/1 39/2/1
f 41/2/1 34/2/1 38/2/1
f 42/2/1 34/2/1 41/2/1
f 43/2/1 34/2/1 42/2/1
f 44/2/1 34/2/1 43/2/1
f 46/5/1 42/5/1 41/5/1
f 47/5/1 42/5/1 46/5/1
f 47/1/1 46/1/1 45/1/1
f 48/1/1 43/1/1 42/1/1
f 48/5/1 42/5/1 47/5/1
f 49/1/1 47/1/1 45/1/1
f 49/1/1 48/1/1 47/1/1
f 50/1/1 43/1/1 48/1/1
f 50/1/1 48/1/1 49/1/1
f 53/2/1 52/2/1 51/2/1
f 54/2/1 52/2/1 53/2/1
f 60/5/1 56/5/1 55/5/1
f 61/5/1 56/5/1 60/5/1
f 62/5/1 58/5/1 57/5/1
f 63/5/1 58/5/1 62/5/1
f 64/4/1 60/4/1 59/4/1
f 65/4/1 60/4/1 64/4/1
f 66/5/2 67/5/2 71/5/2
f 71/5/2 67/5/2 72/5/2
f 68/5/2 69/5/2 73/5/2
f 73/5/2 69/5/2 74/5/2
f 70/4/2 71/4/2 75/4/2
f 75/4/2 71/4/2 76/4/2
f 77/2/2 78/2/2 79/2/2
f 79/2/2 78/2/2 80/2/2
f 81/5/2 82/5/2 86/5/2
f 86/5/2 82/5/2 87/5/2
f 87/5/2 82/5/2 88/5/2
f 88/5/2 82/5/2 89/5/2
f 83/5/2 84/5/2 90/5/2
f 90/5/2 84/5/2 91/5/2
f 91/5/2 84/5/2 92/5/2
f 92/5/2 84/5/2 93/5/2
f 85/4/2 86/4/2 95/4/2
f 86/5/2 87/5/2 96/5/2
f 95/4/2 86/4/2 96/4/2
f 87/1/2 88/1/2 97/1/2
f 96/5/2 87/5/2 97/5/2
f 88/5/2 89/5/2 98/5/2
f 97/1/2 88/1/2 98/1/2
f 89/4/2 90/4/2 99/4/2
f 98/5/2 89/5/2 99/5/2
f 90/5/2 91/5/2 100/5/2
f 99/4/2 90/4/2 100/4/2
f 91/1/2 92/1/2 101/1/2
f 100/5/2 91/5/2 101/5/2
f 92/5/2 93/5/2 102/5/2
f 101/1/2 92/1/2 102/1/2
f 93/4/2 94/4/2 103/4/2
f 102/5/2 93/5/2 103/5/2
f 103/4/2 94/4/2 104/4/2
f 95/3/2 96/3/2 105/3/2
f 96/5/2 97/5/2 106/5/2
f 105/3/2 96/3/2 106/3/2
f 97/5/2 98/5/2 106/5/2
f 98/5/2 99/5/2 106/5/2
f 99/3/2 100/3/2 107/3/2
f 106/5/2 99/5/2 107/5/2
f 101/5/2 102/5/2 108/5/2
f 107/3/2 100/3/2 108/3/2
f 102/5/2 103/5/2 108/5/2
f 100/5/2 101/5/2 108/5/2
f 103/3/2 104/3/2 109/3/2
f 108/5/2 103/5/2 109/5/2
f 109/3/2 104/3/2 110/3/2
f 105/1/2 106/1/2 111/1/2
f 106/2/2 107/2/2 112/2/2
f 111/1/2 106/1/2 112/1/2
f 107/2/2 108/2/2 112/2/2
f 109/2/2 110/2/2 112/2/2
f 108/2/2 109/2/2 112/2/2
f 112/2/2 110/2/2 113/2/2
f 113/2/2 110/2/2 114/2/2
f 111/2/2 112/2/2 115/2/2
f 112/2/2 113/2/2 115/2/2
f 115/2/2 113/2/2 116/2/2
f 114/2/2 110/2/2 117/2/2
f 117/2/2 110/2/2 118/2/2
f 118/2/2 110/2/2 119/2/2
f 119/2/2 110/2/2 120/2/2
f 117/5/2 118/5/2 122/5/2
f 122/5/2 118/5/2 123/5/2
f 121/1/2 122/1/2 123/1/2
f 118/1/2 119/1/2 124/1/2
f 123/5/2 118/5/2 124/5/2
f 121/1/2 123/1/2 125/1/2
f 123/1/2 124/1/2 125/1/2
f 124/1/2 119/1/2 126/1/2
f 125/1/2 124/1/2 126/1/2
f 127/4/2 128/4/2 129/4/2
f 129/4/2 128/4/2 130/4/2
f 136/3/3 133/3/3 132/3/3
f 136/1/3 134/1/3 133/1/3
f 137/2/3 135/2/3 134/2/3
f 137/1/3 134/1/3 136/1/3
f 138/2/3 135/2/3 137/2/3
f 139/4/3 132/4/3 131/4/3
f 140/3/3 136/3/3 132/3/3
f 140/4/3 132/4/3 139/4/3
f 140/3/3 137/3/3 136/3/3
f 140/3/3 138/3/3 137/3/3
f 142/3/3 138/3/3 140/3/3
f 143/3/3 138/3/3 142/3/3
f 144/3/3 138/3/3 143/3/3
f 145/3/3 138/3/3 144/3/3
f 146/4/3 142/4/3 141/4/3
f 147/3/3 143/3/3 142/3/3
f 147/4/3 142/4/3 146/4/3
f 148/1/3 144/1/3 143/1/3
f 148/3/3 143/3/3 147/3/3
f 149/2/3 145/2/3 144/2/3
f 149/1/3 144/1/3 148/1/3
f 150/2/3 145/2/3 149/2/3
f 153/5/3 152/5/3 151/5/3
f 154/5/3 152/5/3 153/5/3
f 157/3/3 155/3/3 154/3/3
f 158/3/3 155/3/3 157/3/3
f 159/5/3 157/5/3 156/5/3
f 160/5/3 157/5/3 159/5/3
f 163/4/3 162/4/3 161/4/3
f 164/4/3 162/4/3 163/4/3
f 165/4/3 162/4/3 164/4/3
f 167/1/3 166/1/3 165/1/3
f 167/1/3 165/1/3 164/1/3
f 168/1/3 166/1/3 167/1/3
f 169/5/3 168/5/3 167/5/3
f 170/1/3 166/1/3 168/1/3
f 170/5/3 168/5/3 169/5/3
f 172/1/3 170/1/3 169/1/3
f 173/1/3 170/1/3 172/1/3
f 174/1/3 166/1/3 170/1/3
f 174/1/3 170/1/3 173/1/3
f 175/4/3 173/4/3 172/4/3
f 175/4/3 172/4/3 171/4/3
f 176/4/3 173/4/3 175/4/3
f 179/5/3 178/5/3 177/5/3
f 180/5/3 178/5/3 179/5/3
f 183/5/3 182/5/3 181/5/3
f 184/5/3 182/5/3 183/5/3
f 187/2/3 186/2/3 185/2/3
f 188/2/3 186/2/3 187/2/3
f 189/4/4 190/4/4 193/4/4
f 193/4/4 190/4/4 194/4/4
f 194/4/4 190/4/4 195/4/4
f 191/5/4 192/5/4 196/5/4
f 196/5/4 192/5/4 197/5/4
f 198/5/4 199/5/4 200/5/4
f 200/5/4 199/5/4 201/5/4
f 203/4/4 204/4/4 205/4/4
f 202/4/4 203/4/4 205/4/4
f 205/4/4 204/4/4 206/4/4
f 207/1/4 208/1/4 209/1/4
f 209/1/4 208/1/4 210/1/4
f 209/5/4 210/5/4 211/5/4
f 210/1/4 208/1/4 212/1/4
f 211/5/4 210/5/4 212/5/4
f 211/1/4 212/1/4 213/1/4
f 212/1/4 208/1/4 214/1/4
f 213/1/4 212/1/4 214/1/4
f 215/5/4 216/5/4 217/5/4
f 217/5/4 216/5/4 218/5/4
f 219/5/4 220/5/4 221/5/4
f 221/5/4 220/5/4 222/5/4
f 224/3/4 225/3/4 227/3/4
f 225/2/4 226/2/4 227/2/4
f 227/2/4 226/2/4 228/2/4
f 224/3/4 227/3/4 230/3/4
f 227/3/4 228/3/4 230/3/4
f 228/2/4 229/2/4 231/2/4
f 230/3/4 228/3/4 231/3/4
f 231/2/4 229/2/4 232/2/4
f 223/4/4 224/4/4 233/4/4
f 224/3/4 230/3/4 234/3/4
f 233/4/4 224/4/4 234/4/4
f 230/2/4 231/2/4 235/2/4
f 234/3/4 230/3/4 235/3/4
f 235/2/4 231/2/4 236/2/4
f 241/5/5 238/5/5 237/5/5
f 242/5/5 238/5/5 241/5/5
f 243/5/5 240/5/5 239/5/5
f 244/5/5 240/5/5 243/5/5
f 249/5/5 246/5/5 245/5/5
f 250/5/5 246/5/5 249/5/5
f 251/5/5 248/5/5 247/5/5
f 252/5/5 248/5/5 251/5/5
f 257/4/5 254/4/5 253/4/5
f 258/4/5 254/4/5 257/4/5
f 259/4/5 256/4/5 255/4/5
f 260/4/5 256/4/5 259/4/5
f 262/3/5 259/3/5 258/3/5
f 263/3/5 259/3/5 262/3/5
f 265/4/5 262/4/5 261/4/5
f 266/3/5 263/3/5 262/3/5
f 266/4/5 262/4/5 265/4/5
f 267/4/5 264/4/5 263/4/5
f 267/3/5 263/3/5 266/3/5
f 268/4/5 264/4/5 267/4/5
f 270/3/5 267/3/5 266/3/5
f 271/3/5 267/3/5 270/3/5
f 273/4/5 270/4/5 269/4/5
f 273/4/5 272/4/5 271/4/5
f 273/4/5 271/4/5 270/4/5
f 274/4/5 272/4/5 273/4/5
f 277/3/5 276/3/5 275/3/5
f 278/3/5 276/3/5 277/3/5
f 283/4/5 280/4/5 279/4/5
f 284/4/5 280/4/5 283/4/5
f 285/4/5 282/4/5 281/4/5
f 286/4/5 282/4/5 285/4/5
f 287/2/6 288/2/6 291/2/6
f 288/3/6 289/3/6 292/3/6
f 291/2/6 288/2/6 292/2/6
f 289/2/6 290/2/6 293/2/6
f 292/3/6 289/3/6 293/3/6
f 293/2/6 290/2/6 294/2/6
f 295/2/6 296/2/6 299/2/6
f 296/3/6 297/3/6 299/3/6
f 297/2/6 298/2/6 300/2/6
f 299/3/6 297/3/6 300/3/6
f 295/2/6 299/2/6 301/2/6
f 301/2/6 299/2/6 302/2/6
f 300/2/6 298/2/6 303/2/6
f 303/2/6 298/2/6 304/2/6
f 305/2/6 306/2/6 307/2/6
f 307/2/6 306/2/6 308/2/6
f 309/4/6 310/4/6 313/4/6
f 313/4/6 310/4/6 314/4/6
f 311/4/6 312/4/6 315/4/6
f 315/4/6 312/4/6 316/4/6
f 317/1/6 318/1/6 319/1/6
f 319/1/6 318/1/6 320/1/6
