# MagicaVoxel @ Ephtracy

# group
o 

# material
mtllib truck2.mtl
usemtl palette

# normals
vn -1 0 0
vn 1 0 0
vn 0 0 1
vn 0 0 -1
vn 0 -1 0
vn 0 1 0

# texcoords
vt 0.00195313 0.5
vt 0.689453 0.5
vt 0.724609 0.5
vt 0.931641 0.5
vt 0.994141 0.5

# verts
v 0 3.2 -0.3
v 0 3.2 -0.6
v 0 3.9 -0.3
v 0 3.9 -0.6
v 0.3 2 -0.6
v 0.3 2 -1.5
v 0.3 2 -3
v 0.3 2 -3.9
v 0.3 2 -7.5
v 0.3 2 -8.4
v 0.3 2.3 0
v 0.3 2.3 -0.6
v 0.3 2.3 -0.9
v 0.3 2.3 -1.2
v 0.3 2.3 -1.5
v 0.3 2.3 -1.8
v 0.3 2.3 -2.1
v 0.3 2.3 -3
v 0.3 2.3 -3.3
v 0.3 2.3 -3.6
v 0.3 2.3 -3.9
v 0.3 2.3 -7.5
v 0.3 2.3 -7.8
v 0.3 2.3 -8.1
v 0.3 2.3 -8.4
v 0.3 2.3 -8.7
v 0.3 2.6 0
v 0.3 2.6 -0.6
v 0.3 2.6 -0.9
v 0.3 2.6 -1.2
v 0.3 2.6 -1.5
v 0.3 2.6 -1.8
v 0.3 2.6 -2.1
v 0.3 2.6 -3
v 0.3 2.6 -3.3
v 0.3 2.6 -3.6
v 0.3 2.6 -3.9
v 0.3 2.6 -7.5
v 0.3 2.6 -7.8
v 0.3 2.6 -8.1
v 0.3 2.6 -8.4
v 0.3 2.6 -8.7
v 0.3 2.6 -9
v 0.3 2.9 -0.6
v 0.3 2.9 -1.5
v 0.3 2.9 -2.1
v 0.3 2.9 -9
v 0.3 3.2 -0.3
v 0.3 3.2 -0.6
v 0.3 3.9 0
v 0.3 3.9 -0.3
v 0.3 3.9 -0.6
v 0.3 3.9 -0.9
v 0.3 4.5 0
v 0.3 4.5 -0.9
v 0.3 4.8 0
v 0.3 4.8 -1.8
v 0.3 5.1 -2.1
v 0.3 5.1 -9
v 0.3 5.4 -2.1
v 0.3 5.4 -9
v 0.6 4.8 -0.9
v 0.6 4.8 -1.8
v 0.6 5.1 -0.9
v 0.6 5.1 -1.2
v 0.6 5.4 -1.2
v 0.6 5.4 -1.8
v 1.4 2.3 -1.8
v 1.4 2.3 -2.1
v 1.4 2.6 -1.8
v 1.4 2.6 -2.1
v 1.4 2.7 -1.8
v 1.4 2.7 -2.1
v 2.2 2 -0.6
v 2.2 2 -1.5
v 2.2 2 -3
v 2.2 2 -3.9
v 2.2 2 -7.5
v 2.2 2 -8.4
v 2.2 2.3 -0.6
v 2.2 2.3 -1.5
v 2.2 2.3 -3
v 2.2 2.3 -3.9
v 2.2 2.3 -7.5
v 2.2 2.3 -8.4
v 1.2 2 -0.6
v 1.2 2 -1.5
v 1.2 2 -3
v 1.2 2 -3.9
v 1.2 2 -7.5
v 1.2 2 -8.4
v 1.2 2.3 -0.6
v 1.2 2.3 -1.5
v 1.2 2.3 -3
v 1.2 2.3 -3.9
v 1.2 2.3 -7.5
v 1.2 2.3 -8.4
v 2 2.3 -1.8
v 2 2.3 -2.1
v 2 2.6 -1.8
v 2 2.6 -2.1
v 2 2.7 -1.8
v 2 2.7 -2.1
v 2.8 4.8 -0.9
v 2.8 4.8 -1.8
v 2.8 5.1 -0.9
v 2.8 5.1 -1.2
v 2.8 5.4 -1.2
v 2.8 5.4 -1.8
v 3.1 2 -0.6
v 3.1 2 -1.5
v 3.1 2 -3
v 3.1 2 -3.9
v 3.1 2 -7.5
v 3.1 2 -8.4
v 3.1 2.3 0
v 3.1 2.3 -0.6
v 3.1 2.3 -0.9
v 3.1 2.3 -1.2
v 3.1 2.3 -1.5
v 3.1 2.3 -1.8
v 3.1 2.3 -2.1
v 3.1 2.3 -3
v 3.1 2.3 -3.3
v 3.1 2.3 -3.6
v 3.1 2.3 -3.9
v 3.1 2.3 -7.5
v 3.1 2.3 -7.8
v 3.1 2.3 -8.1
v 3.1 2.3 -8.4
v 3.1 2.3 -8.7
v 3.1 2.6 0
v 3.1 2.6 -0.6
v 3.1 2.6 -0.9
v 3.1 2.6 -1.2
v 3.1 2.6 -1.5
v 3.1 2.6 -1.8
v 3.1 2.6 -2.1
v 3.1 2.6 -3
v 3.1 2.6 -3.3
v 3.1 2.6 -3.6
v 3.1 2.6 -3.9
v 3.1 2.6 -7.5
v 3.1 2.6 -7.8
v 3.1 2.6 -8.1
v 3.1 2.6 -8.4
v 3.1 2.6 -8.7
v 3.1 2.6 -9
v 3.1 2.9 -0.6
v 3.1 2.9 -1.5
v 3.1 2.9 -2.1
v 3.1 2.9 -9
v 3.1 3.2 -0.3
v 3.1 3.2 -0.6
v 3.1 3.9 0
v 3.1 3.9 -0.3
v 3.1 3.9 -0.6
v 3.1 3.9 -0.9
v 3.1 4.5 0
v 3.1 4.5 -0.9
v 3.1 4.8 0
v 3.1 4.8 -1.8
v 3.1 5.1 -2.1
v 3.1 5.1 -9
v 3.1 5.4 -2.1
v 3.1 5.4 -9
v 3.4 3.2 -0.3
v 3.4 3.2 -0.6
v 3.4 3.9 -0.3
v 3.4 3.9 -0.6
v 0.3 2.3 0
v 0.3 2.6 0
v 0.3 3.9 0
v 0.3 4.5 0
v 0.3 4.8 0
v 0.6 2.6 0
v 0.6 2.9 0
v 0.9 2.6 0
v 0.9 2.9 0
v 2.5 2.6 0
v 2.5 2.9 0
v 2.8 2.6 0
v 2.8 2.9 0
v 3.1 2.3 0
v 3.1 2.6 0
v 3.1 3.9 0
v 3.1 4.5 0
v 3.1 4.8 0
v 0 3.2 -0.3
v 0 3.9 -0.3
v 0.3 3.2 -0.3
v 0.3 3.9 -0.3
v 3.1 3.2 -0.3
v 3.1 3.9 -0.3
v 3.4 3.2 -0.3
v 3.4 3.9 -0.3
v 0.3 2 -0.6
v 0.3 2.3 -0.6
v 1.2 2 -0.6
v 1.2 2.3 -0.6
v 2.2 2 -0.6
v 2.2 2.3 -0.6
v 3.1 2 -0.6
v 3.1 2.3 -0.6
v 0.6 4.8 -0.9
v 0.6 5.1 -0.9
v 2.8 4.8 -0.9
v 2.8 5.1 -0.9
v 0.6 5.1 -1.2
v 0.6 5.4 -1.2
v 2.8 5.1 -1.2
v 2.8 5.4 -1.2
v 0.3 2.3 -2.1
v 0.3 2.6 -2.1
v 0.3 2.9 -2.1
v 0.3 5.1 -2.1
v 0.3 5.4 -2.1
v 0.6 2.9 -2.1
v 0.6 5.1 -2.1
v 0.9 2.9 -2.1
v 0.9 3.2 -2.1
v 0.9 3.5 -2.1
v 0.9 5.1 -2.1
v 1.4 2.3 -2.1
v 1.4 2.6 -2.1
v 1.4 2.7 -2.1
v 2 2.3 -2.1
v 2 2.6 -2.1
v 2 2.7 -2.1
v 2.5 2.9 -2.1
v 2.5 3.2 -2.1
v 2.5 3.5 -2.1
v 2.5 5.1 -2.1
v 2.8 2.9 -2.1
v 2.8 5.1 -2.1
v 3.1 2.3 -2.1
v 3.1 2.6 -2.1
v 3.1 2.9 -2.1
v 3.1 5.1 -2.1
v 3.1 5.4 -2.1
v 0.3 2 -3
v 0.3 2.3 -3
v 1.2 2 -3
v 1.2 2.3 -3
v 2.2 2 -3
v 2.2 2.3 -3
v 3.1 2 -3
v 3.1 2.3 -3
v 0.3 2 -7.5
v 0.3 2.3 -7.5
v 1.2 2 -7.5
v 1.2 2.3 -7.5
v 2.2 2 -7.5
v 2.2 2.3 -7.5
v 3.1 2 -7.5
v 3.1 2.3 -7.5
v 0 3.2 -0.6
v 0 3.9 -0.6
v 0.3 3.2 -0.6
v 0.3 3.9 -0.6
v 3.1 3.2 -0.6
v 3.1 3.9 -0.6
v 3.4 3.2 -0.6
v 3.4 3.9 -0.6
v 0.3 2 -1.5
v 0.3 2.3 -1.5
v 1.2 2 -1.5
v 1.2 2.3 -1.5
v 2.2 2 -1.5
v 2.2 2.3 -1.5
v 3.1 2 -1.5
v 3.1 2.3 -1.5
v 0.3 2.3 -1.8
v 0.3 2.6 -1.8
v 0.3 4.8 -1.8
v 0.6 4.8 -1.8
v 0.6 5.4 -1.8
v 1.4 2.3 -1.8
v 1.4 2.6 -1.8
v 1.4 2.7 -1.8
v 2 2.3 -1.8
v 2 2.6 -1.8
v 2 2.7 -1.8
v 2.8 4.8 -1.8
v 2.8 5.4 -1.8
v 3.1 2.3 -1.8
v 3.1 2.6 -1.8
v 3.1 4.8 -1.8
v 0.3 2 -3.9
v 0.3 2.3 -3.9
v 1.2 2 -3.9
v 1.2 2.3 -3.9
v 2.2 2 -3.9
v 2.2 2.3 -3.9
v 3.1 2 -3.9
v 3.1 2.3 -3.9
v 0.3 2 -8.4
v 0.3 2.3 -8.4
v 1.2 2 -8.4
v 1.2 2.3 -8.4
v 2.2 2 -8.4
v 2.2 2.3 -8.4
v 3.1 2 -8.4
v 3.1 2.3 -8.4
v 0.3 2.3 -8.7
v 0.3 2.6 -8.7
v 3.1 2.3 -8.7
v 3.1 2.6 -8.7
v 0.3 2.6 -9
v 0.3 2.9 -9
v 0.3 5.1 -9
v 0.3 5.4 -9
v 0.6 2.9 -9
v 0.6 5.1 -9
v 0.9 2.9 -9
v 0.9 3.2 -9
v 0.9 3.5 -9
v 0.9 5.1 -9
v 2.5 2.9 -9
v 2.5 3.2 -9
v 2.5 3.5 -9
v 2.5 5.1 -9
v 2.8 2.9 -9
v 2.8 5.1 -9
v 3.1 2.6 -9
v 3.1 2.9 -9
v 3.1 5.1 -9
v 3.1 5.4 -9
v 0.3 2 -0.6
v 1.2 2 -0.6
v 2.2 2 -0.6
v 3.1 2 -0.6
v 0.3 2 -1.5
v 1.2 2 -1.5
v 2.2 2 -1.5
v 3.1 2 -1.5
v 0.3 2 -3
v 1.2 2 -3
v 2.2 2 -3
v 3.1 2 -3
v 0.3 2 -3.9
v 1.2 2 -3.9
v 2.2 2 -3.9
v 3.1 2 -3.9
v 0.3 2 -7.5
v 1.2 2 -7.5
v 2.2 2 -7.5
v 3.1 2 -7.5
v 0.3 2 -8.4
v 1.2 2 -8.4
v 2.2 2 -8.4
v 3.1 2 -8.4
v 0.3 2.3 0
v 3.1 2.3 0
v 0.3 2.3 -0.6
v 1.2 2.3 -0.6
v 2.2 2.3 -0.6
v 3.1 2.3 -0.6
v 0.3 2.3 -1.5
v 1.2 2.3 -1.5
v 2.2 2.3 -1.5
v 3.1 2.3 -1.5
v 0.3 2.3 -1.8
v 1.4 2.3 -1.8
v 2 2.3 -1.8
v 3.1 2.3 -1.8
v 0.3 2.3 -2.1
v 1.4 2.3 -2.1
v 2 2.3 -2.1
v 3.1 2.3 -2.1
v 0.3 2.3 -3
v 1.2 2.3 -3
v 2.2 2.3 -3
v 3.1 2.3 -3
v 0.3 2.3 -3.9
v 1.2 2.3 -3.9
v 2.2 2.3 -3.9
v 3.1 2.3 -3.9
v 0.3 2.3 -7.5
v 1.2 2.3 -7.5
v 2.2 2.3 -7.5
v 3.1 2.3 -7.5
v 0.3 2.3 -8.4
v 1.2 2.3 -8.4
v 2.2 2.3 -8.4
v 3.1 2.3 -8.4
v 0.3 2.3 -8.7
v 3.1 2.3 -8.7
v 0.3 2.6 -8.7
v 3.1 2.6 -8.7
v 0.3 2.6 -9
v 3.1 2.6 -9
v 0 3.2 -0.3
v 0.3 3.2 -0.3
v 3.1 3.2 -0.3
v 3.4 3.2 -0.3
v 0 3.2 -0.6
v 0.3 3.2 -0.6
v 3.1 3.2 -0.6
v 3.4 3.2 -0.6
v 1.4 2.7 -1.8
v 2 2.7 -1.8
v 1.4 2.7 -2.1
v 2 2.7 -2.1
v 0 3.9 -0.3
v 0.3 3.9 -0.3
v 3.1 3.9 -0.3
v 3.4 3.9 -0.3
v 0 3.9 -0.6
v 0.3 3.9 -0.6
v 3.1 3.9 -0.6
v 3.4 3.9 -0.6
v 0.3 4.8 0
v 3.1 4.8 0
v 0.6 4.8 -0.9
v 2.8 4.8 -0.9
v 0.3 4.8 -1.8
v 0.6 4.8 -1.8
v 2.8 4.8 -1.8
v 3.1 4.8 -1.8
v 0.6 5.1 -0.9
v 2.8 5.1 -0.9
v 0.6 5.1 -1.2
v 2.8 5.1 -1.2
v 0.6 5.4 -1.2
v 2.8 5.4 -1.2
v 0.6 5.4 -1.8
v 2.8 5.4 -1.8
v 0.3 5.4 -2.1
v 3.1 5.4 -2.1
v 0.3 5.4 -9
v 3.1 5.4 -9

# faces
f 3/2/1 2/2/1 1/2/1
f 4/2/1 2/2/1 3/2/1
f 12/5/1 6/5/1 5/5/1
f 13/5/1 6/5/1 12/5/1
f 14/5/1 6/5/1 13/5/1
f 15/5/1 6/5/1 14/5/1
f 18/5/1 8/5/1 7/5/1
f 19/5/1 8/5/1 18/5/1
f 20/5/1 8/5/1 19/5/1
f 21/5/1 8/5/1 20/5/1
f 22/5/1 10/5/1 9/5/1
f 23/5/1 10/5/1 22/5/1
f 24/5/1 10/5/1 23/5/1
f 25/5/1 10/5/1 24/5/1
f 27/4/1 12/4/1 11/4/1
f 28/5/1 13/5/1 12/5/1
f 28/4/1 12/4/1 27/4/1
f 29/1/1 14/1/1 13/1/1
f 29/5/1 13/5/1 28/5/1
f 30/5/1 15/5/1 14/5/1
f 30/1/1 14/1/1 29/1/1
f 31/4/1 16/4/1 15/4/1
f 31/5/1 15/5/1 30/5/1
f 32/4/1 16/4/1 31/4/1
f 33/4/1 18/4/1 17/4/1
f 34/5/1 19/5/1 18/5/1
f 34/4/1 18/4/1 33/4/1
f 35/1/1 20/1/1 19/1/1
f 35/5/1 19/5/1 34/5/1
f 36/5/1 21/5/1 20/5/1
f 36/1/1 20/1/1 35/1/1
f 37/4/1 22/4/1 21/4/1
f 37/5/1 21/5/1 36/5/1
f 38/5/1 23/5/1 22/5/1
f 38/4/1 22/4/1 37/4/1
f 39/1/1 24/1/1 23/1/1
f 39/5/1 23/5/1 38/5/1
f 40/5/1 25/5/1 24/5/1
f 40/1/1 24/1/1 39/1/1
f 41/4/1 26/4/1 25/4/1
f 41/5/1 25/5/1 40/5/1
f 42/4/1 26/4/1 41/4/1
f 44/5/1 30/5/1 29/5/1
f 44/2/1 28/2/1 27/2/1
f 44/5/1 29/5/1 28/5/1
f 44/5/1 31/5/1 30/5/1
f 45/2/1 32/2/1 31/2/1
f 45/5/1 31/5/1 44/5/1
f 46/3/1 35/3/1 34/3/1
f 46/3/1 43/3/1 42/3/1
f 46/3/1 40/3/1 39/3/1
f 46/3/1 39/3/1 38/3/1
f 46/3/1 38/3/1 37/3/1
f 46/3/1 37/3/1 36/3/1
f 46/3/1 36/3/1 35/3/1
f 46/3/1 42/3/1 41/3/1
f 46/3/1 34/3/1 33/3/1
f 46/3/1 41/3/1 40/3/1
f 47/3/1 43/3/1 46/3/1
f 48/2/1 45/2/1 44/2/1
f 48/2/1 44/2/1 27/2/1
f 49/2/1 45/2/1 48/2/1
f 50/2/1 48/2/1 27/2/1
f 51/2/1 48/2/1 50/2/1
f 52/2/1 45/2/1 49/2/1
f 53/2/1 45/2/1 52/2/1
f 54/5/1 51/5/1 50/5/1
f 54/5/1 52/5/1 51/5/1
f 54/5/1 53/5/1 52/5/1
f 55/2/1 45/2/1 53/2/1
f 55/5/1 53/5/1 54/5/1
f 56/2/1 55/2/1 54/2/1
f 57/2/1 32/2/1 45/2/1
f 57/2/1 55/2/1 56/2/1
f 57/2/1 45/2/1 55/2/1
f 58/1/1 47/1/1 46/1/1
f 59/1/1 47/1/1 58/1/1
f 60/3/1 59/3/1 58/3/1
f 61/3/1 59/3/1 60/3/1
f 64/1/1 63/1/1 62/1/1
f 65/1/1 63/1/1 64/1/1
f 66/1/1 63/1/1 65/1/1
f 67/1/1 63/1/1 66/1/1
f 70/4/1 69/4/1 68/4/1
f 71/4/1 69/4/1 70/4/1
f 72/4/1 71/4/1 70/4/1
f 73/4/1 71/4/1 72/4/1
f 80/5/1 75/5/1 74/5/1
f 81/5/1 75/5/1 80/5/1
f 82/5/1 77/5/1 76/5/1
f 83/5/1 77/5/1 82/5/1
f 84/5/1 79/5/1 78/5/1
f 85/5/1 79/5/1 84/5/1
f 86/5/2 87/5/2 92/5/2
f 92/5/2 87/5/2 93/5/2
f 88/5/2 89/5/2 94/5/2
f 94/5/2 89/5/2 95/5/2
f 90/5/2 91/5/2 96/5/2
f 96/5/2 91/5/2 97/5/2
f 98/4/2 99/4/2 100/4/2
f 100/4/2 99/4/2 101/4/2
f 100/4/2 101/4/2 102/4/2
f 102/4/2 101/4/2 103/4/2
f 104/1/2 105/1/2 106/1/2
f 106/1/2 105/1/2 107/1/2
f 107/1/2 105/1/2 108/1/2
f 108/1/2 105/1/2 109/1/2
f 110/5/2 111/5/2 117/5/2
f 117/5/2 111/5/2 118/5/2
f 118/5/2 111/5/2 119/5/2
f 119/5/2 111/5/2 120/5/2
f 112/5/2 113/5/2 123/5/2
f 123/5/2 113/5/2 124/5/2
f 124/5/2 113/5/2 125/5/2
f 125/5/2 113/5/2 126/5/2
f 114/5/2 115/5/2 127/5/2
f 127/5/2 115/5/2 128/5/2
f 128/5/2 115/5/2 129/5/2
f 129/5/2 115/5/2 130/5/2
f 116/4/2 117/4/2 132/4/2
f 117/5/2 118/5/2 133/5/2
f 132/4/2 117/4/2 133/4/2
f 118/1/2 119/1/2 134/1/2
f 133/5/2 118/5/2 134/5/2
f 119/5/2 120/5/2 135/5/2
f 134/1/2 119/1/2 135/1/2
f 120/4/2 121/4/2 136/4/2
f 135/5/2 120/5/2 136/5/2
f 136/4/2 121/4/2 137/4/2
f 122/4/2 123/4/2 138/4/2
f 123/5/2 124/5/2 139/5/2
f 138/4/2 123/4/2 139/4/2
f 124/1/2 125/1/2 140/1/2
f 139/5/2 124/5/2 140/5/2
f 125/5/2 126/5/2 141/5/2
f 140/1/2 125/1/2 141/1/2
f 126/4/2 127/4/2 142/4/2
f 141/5/2 126/5/2 142/5/2
f 127/5/2 128/5/2 143/5/2
f 142/4/2 127/4/2 143/4/2
f 128/1/2 129/1/2 144/1/2
f 143/5/2 128/5/2 144/5/2
f 129/5/2 130/5/2 145/5/2
f 144/1/2 129/1/2 145/1/2
f 130/4/2 131/4/2 146/4/2
f 145/5/2 130/5/2 146/5/2
f 146/4/2 131/4/2 147/4/2
f 134/5/2 135/5/2 149/5/2
f 132/2/2 133/2/2 149/2/2
f 133/5/2 134/5/2 149/5/2
f 135/5/2 136/5/2 149/5/2
f 136/2/2 137/2/2 150/2/2
f 149/5/2 136/5/2 150/5/2
f 139/3/2 140/3/2 151/3/2
f 147/3/2 148/3/2 151/3/2
f 144/3/2 145/3/2 151/3/2
f 143/3/2 144/3/2 151/3/2
f 142/3/2 143/3/2 151/3/2
f 141/3/2 142/3/2 151/3/2
f 140/3/2 141/3/2 151/3/2
f 146/3/2 147/3/2 151/3/2
f 138/3/2 139/3/2 151/3/2
f 145/3/2 146/3/2 151/3/2
f 151/3/2 148/3/2 152/3/2
f 149/2/2 150/2/2 153/2/2
f 132/2/2 149/2/2 153/2/2
f 153/2/2 150/2/2 154/2/2
f 132/2/2 153/2/2 155/2/2
f 155/2/2 153/2/2 156/2/2
f 154/2/2 150/2/2 157/2/2
f 157/2/2 150/2/2 158/2/2
f 155/5/2 156/5/2 159/5/2
f 156/5/2 157/5/2 159/5/2
f 157/5/2 158/5/2 159/5/2
f 158/2/2 150/2/2 160/2/2
f 159/5/2 158/5/2 160/5/2
f 159/2/2 160/2/2 161/2/2
f 150/2/2 137/2/2 162/2/2
f 161/2/2 160/2/2 162/2/2
f 160/2/2 150/2/2 162/2/2
f 151/1/2 152/1/2 163/1/2
f 163/1/2 152/1/2 164/1/2
f 163/3/2 164/3/2 165/3/2
f 165/3/2 164/3/2 166/3/2
f 167/2/2 168/2/2 169/2/2
f 169/2/2 168/2/2 170/2/2
f 176/4/3 172/4/3 171/4/3
f 176/2/3 173/2/3 172/2/3
f 177/2/3 173/2/3 176/2/3
f 178/4/3 176/4/3 171/4/3
f 178/1/3 177/1/3 176/1/3
f 179/2/3 173/2/3 177/2/3
f 179/1/3 177/1/3 178/1/3
f 180/4/3 178/4/3 171/4/3
f 180/2/3 179/2/3 178/2/3
f 181/2/3 173/2/3 179/2/3
f 181/2/3 179/2/3 180/2/3
f 182/4/3 180/4/3 171/4/3
f 182/1/3 181/1/3 180/1/3
f 183/2/3 173/2/3 181/2/3
f 183/1/3 181/1/3 182/1/3
f 184/4/3 182/4/3 171/4/3
f 185/2/3 183/2/3 182/2/3
f 185/4/3 182/4/3 184/4/3
f 186/5/3 174/5/3 173/5/3
f 186/2/3 183/2/3 185/2/3
f 186/2/3 173/2/3 183/2/3
f 187/2/3 175/2/3 174/2/3
f 187/5/3 174/5/3 186/5/3
f 188/2/3 175/2/3 187/2/3
f 191/2/3 190/2/3 189/2/3
f 192/2/3 190/2/3 191/2/3
f 195/2/3 194/2/3 193/2/3
f 196/2/3 194/2/3 195/2/3
f 199/5/3 198/5/3 197/5/3
f 200/5/3 198/5/3 199/5/3
f 203/5/3 202/5/3 201/5/3
f 204/5/3 202/5/3 203/5/3
f 207/1/3 206/1/3 205/1/3
f 208/1/3 206/1/3 207/1/3
f 211/1/3 210/1/3 209/1/3
f 212/1/3 210/1/3 211/1/3
f 218/3/3 215/3/3 214/3/3
f 218/1/3 216/1/3 215/1/3
f 219/3/3 217/3/3 216/3/3
f 219/1/3 216/1/3 218/1/3
f 220/3/3 218/3/3 214/3/3
f 220/3/3 219/3/3 218/3/3
f 221/3/3 219/3/3 220/3/3
f 222/3/3 219/3/3 221/3/3
f 223/3/3 217/3/3 219/3/3
f 223/3/3 219/3/3 222/3/3
f 224/4/3 214/4/3 213/4/3
f 225/3/3 220/3/3 214/3/3
f 225/4/3 214/4/3 224/4/3
f 226/3/3 220/3/3 225/3/3
f 229/3/3 220/3/3 226/3/3
f 230/1/3 221/1/3 220/1/3
f 230/3/3 229/3/3 228/3/3
f 230/3/3 220/3/3 229/3/3
f 231/3/3 222/3/3 221/3/3
f 231/1/3 221/1/3 230/1/3
f 232/1/3 223/1/3 222/1/3
f 232/3/3 222/3/3 231/3/3
f 233/3/3 217/3/3 223/3/3
f 233/1/3 223/1/3 232/1/3
f 234/3/3 232/3/3 231/3/3
f 234/3/3 230/3/3 228/3/3
f 234/3/3 233/3/3 232/3/3
f 234/3/3 231/3/3 230/3/3
f 235/3/3 217/3/3 233/3/3
f 235/3/3 233/3/3 234/3/3
f 236/4/3 228/4/3 227/4/3
f 237/3/3 234/3/3 228/3/3
f 237/4/3 228/4/3 236/4/3
f 238/1/3 235/1/3 234/1/3
f 238/3/3 234/3/3 237/3/3
f 239/3/3 217/3/3 235/3/3
f 239/1/3 235/1/3 238/1/3
f 240/3/3 217/3/3 239/3/3
f 243/5/3 242/5/3 241/5/3
f 244/5/3 242/5/3 243/5/3
f 247/5/3 246/5/3 245/5/3
f 248/5/3 246/5/3 247/5/3
f 251/5/3 250/5/3 249/5/3
f 252/5/3 250/5/3 251/5/3
f 255/5/3 254/5/3 253/5/3
f 256/5/3 254/5/3 255/5/3
f 257/2/4 258/2/4 259/2/4
f 259/2/4 258/2/4 260/2/4
f 261/2/4 262/2/4 263/2/4
f 263/2/4 262/2/4 264/2/4
f 265/5/4 266/5/4 267/5/4
f 267/5/4 266/5/4 268/5/4
f 269/5/4 270/5/4 271/5/4
f 271/5/4 270/5/4 272/5/4
f 274/2/4 275/2/4 276/2/4
f 273/4/4 274/4/4 278/4/4
f 274/2/4 276/2/4 279/2/4
f 278/4/4 274/4/4 279/4/4
f 279/2/4 276/2/4 280/2/4
f 280/2/4 276/2/4 283/2/4
f 276/1/4 277/1/4 284/1/4
f 282/2/4 283/2/4 284/2/4
f 283/2/4 276/2/4 284/2/4
f 284/1/4 277/1/4 285/1/4
f 281/4/4 282/4/4 286/4/4
f 282/2/4 284/2/4 287/2/4
f 286/4/4 282/4/4 287/4/4
f 287/2/4 284/2/4 288/2/4
f 289/5/4 290/5/4 291/5/4
f 291/5/4 290/5/4 292/5/4
f 293/5/4 294/5/4 295/5/4
f 295/5/4 294/5/4 296/5/4
f 297/5/4 298/5/4 299/5/4
f 299/5/4 298/5/4 300/5/4
f 301/5/4 302/5/4 303/5/4
f 303/5/4 302/5/4 304/5/4
f 305/4/4 306/4/4 307/4/4
f 307/4/4 306/4/4 308/4/4
f 309/3/4 310/3/4 313/3/4
f 310/1/4 311/1/4 313/1/4
f 311/3/4 312/3/4 314/3/4
f 313/1/4 311/1/4 314/1/4
f 309/3/4 313/3/4 315/3/4
f 313/3/4 314/3/4 315/3/4
f 315/3/4 314/3/4 316/3/4
f 316/3/4 314/3/4 317/3/4
f 314/3/4 312/3/4 318/3/4
f 317/3/4 314/3/4 318/3/4
f 309/3/4 315/3/4 319/3/4
f 315/1/4 316/1/4 319/1/4
f 316/3/4 317/3/4 320/3/4
f 319/1/4 316/1/4 320/1/4
f 317/1/4 318/1/4 321/1/4
f 320/3/4 317/3/4 321/3/4
f 318/3/4 312/3/4 322/3/4
f 321/1/4 318/1/4 322/1/4
f 309/3/4 319/3/4 323/3/4
f 320/3/4 321/3/4 323/3/4
f 321/3/4 322/3/4 323/3/4
f 319/3/4 320/3/4 323/3/4
f 322/3/4 312/3/4 324/3/4
f 323/3/4 322/3/4 324/3/4
f 309/3/4 323/3/4 325/3/4
f 323/1/4 324/1/4 326/1/4
f 325/3/4 323/3/4 326/3/4
f 324/3/4 312/3/4 327/3/4
f 326/1/4 324/1/4 327/1/4
f 327/3/4 312/3/4 328/3/4
f 333/5/5 330/5/5 329/5/5
f 334/5/5 330/5/5 333/5/5
f 335/5/5 332/5/5 331/5/5
f 336/5/5 332/5/5 335/5/5
f 341/5/5 338/5/5 337/5/5
f 342/5/5 338/5/5 341/5/5
f 343/5/5 340/5/5 339/5/5
f 344/5/5 340/5/5 343/5/5
f 349/5/5 346/5/5 345/5/5
f 350/5/5 346/5/5 349/5/5
f 351/5/5 348/5/5 347/5/5
f 352/5/5 348/5/5 351/5/5
f 355/4/5 354/4/5 353/4/5
f 356/4/5 354/4/5 355/4/5
f 357/4/5 354/4/5 356/4/5
f 358/4/5 354/4/5 357/4/5
f 360/4/5 357/4/5 356/4/5
f 361/4/5 357/4/5 360/4/5
f 363/4/5 360/4/5 359/4/5
f 363/4/5 362/4/5 361/4/5
f 363/4/5 361/4/5 360/4/5
f 364/4/5 362/4/5 363/4/5
f 365/4/5 362/4/5 364/4/5
f 366/4/5 362/4/5 365/4/5
f 368/4/5 365/4/5 364/4/5
f 369/4/5 365/4/5 368/4/5
f 371/4/5 368/4/5 367/4/5
f 371/4/5 370/4/5 369/4/5
f 371/4/5 369/4/5 368/4/5
f 372/4/5 370/4/5 371/4/5
f 373/4/5 370/4/5 372/4/5
f 374/4/5 370/4/5 373/4/5
f 376/4/5 373/4/5 372/4/5
f 377/4/5 373/4/5 376/4/5
f 379/4/5 376/4/5 375/4/5
f 379/4/5 378/4/5 377/4/5
f 379/4/5 377/4/5 376/4/5
f 380/4/5 378/4/5 379/4/5
f 381/4/5 378/4/5 380/4/5
f 382/4/5 378/4/5 381/4/5
f 384/4/5 381/4/5 380/4/5
f 385/4/5 381/4/5 384/4/5
f 387/4/5 384/4/5 383/4/5
f 387/4/5 386/4/5 385/4/5
f 387/4/5 385/4/5 384/4/5
f 388/4/5 386/4/5 387/4/5
f 391/3/5 390/3/5 389/3/5
f 392/3/5 390/3/5 391/3/5
f 397/2/5 394/2/5 393/2/5
f 398/2/5 394/2/5 397/2/5
f 399/2/5 396/2/5 395/2/5
f 400/2/5 396/2/5 399/2/5
f 401/4/6 402/4/6 403/4/6
f 403/4/6 402/4/6 404/4/6
f 405/2/6 406/2/6 409/2/6
f 409/2/6 406/2/6 410/2/6
f 407/2/6 408/2/6 411/2/6
f 411/2/6 408/2/6 412/2/6
f 413/2/6 414/2/6 415/2/6
f 415/2/6 414/2/6 416/2/6
f 413/2/6 415/2/6 417/2/6
f 417/2/6 415/2/6 418/2/6
f 416/2/6 414/2/6 419/2/6
f 419/2/6 414/2/6 420/2/6
f 421/1/6 422/1/6 423/1/6
f 423/1/6 422/1/6 424/1/6
f 425/1/6 426/1/6 427/1/6
f 427/1/6 426/1/6 428/1/6
f 429/3/6 430/3/6 431/3/6
f 431/3/6 430/3/6 432/3/6
