# MagicaVoxel @ Ephtracy

# group
o 

# material
mtllib car1.mtl
usemtl palette

# normals
vn -1 0 0
vn 1 0 0
vn 0 0 1
vn 0 0 -1
vn 0 -1 0
vn 0 1 0

# texcoords
vt 0.00195313 0.5
vt 0.908203 0.5
vt 0.912109 0.5
vt 0.931641 0.5
vt 0.994141 0.5

# verts
v 0 3.2 -2
v 0 3.2 -2.8
v 0 3.5 -2
v 0 3.5 -2.8
v 0.3 2 -0.8
v 0.3 2 -1.7
v 0.3 2 -3.8
v 0.3 2 -4.7
v 0.3 2.3 0
v 0.3 2.3 -0.8
v 0.3 2.3 -1.1
v 0.3 2.3 -1.4
v 0.3 2.3 -1.7
v 0.3 2.3 -3.8
v 0.3 2.3 -4.1
v 0.3 2.3 -4.4
v 0.3 2.3 -4.7
v 0.3 2.3 -5
v 0.3 2.6 0
v 0.3 2.6 -0.8
v 0.3 2.6 -1.1
v 0.3 2.6 -1.4
v 0.3 2.6 -1.7
v 0.3 2.6 -3.8
v 0.3 2.6 -4.1
v 0.3 2.6 -4.4
v 0.3 2.6 -4.7
v 0.3 2.6 -5
v 0.3 2.9 0
v 0.3 2.9 -0.8
v 0.3 2.9 -1.7
v 0.3 2.9 -3.8
v 0.3 2.9 -4.7
v 0.3 2.9 -5
v 0.3 3.2 -2
v 0.3 3.2 -2.8
v 0.3 3.5 0
v 0.3 3.5 -2
v 0.3 3.5 -2.8
v 0.3 3.5 -5
v 0.7 3.5 -1.7
v 0.7 3.5 -2
v 0.7 3.5 -3.5
v 0.7 3.5 -3.8
v 0.7 3.5 -4.1
v 0.7 3.5 -4.4
v 0.7 4.1 -2
v 0.7 4.1 -3.5
v 0.7 4.1 -3.8
v 0.7 4.1 -4.1
v 0.7 4.4 -1.7
v 0.7 4.4 -4.4
v 2.2 2 -0.8
v 2.2 2 -1.7
v 2.2 2 -3.8
v 2.2 2 -4.7
v 2.2 2.3 0
v 2.2 2.3 -0.5
v 2.2 2.3 -0.8
v 2.2 2.3 -1.7
v 2.2 2.3 -3.8
v 2.2 2.3 -4.7
v 2.2 2.6 0
v 2.2 2.6 -0.5
v 1.2 2 -0.8
v 1.2 2 -1.7
v 1.2 2 -3.8
v 1.2 2 -4.7
v 1.2 2.3 0
v 1.2 2.3 -0.5
v 1.2 2.3 -0.8
v 1.2 2.3 -1.7
v 1.2 2.3 -3.8
v 1.2 2.3 -4.7
v 1.2 2.6 0
v 1.2 2.6 -0.5
v 2.7 3.5 -1.7
v 2.7 3.5 -2
v 2.7 3.5 -3.5
v 2.7 3.5 -3.8
v 2.7 3.5 -4.1
v 2.7 3.5 -4.4
v 2.7 4.1 -2
v 2.7 4.1 -3.5
v 2.7 4.1 -3.8
v 2.7 4.1 -4.1
v 2.7 4.4 -1.7
v 2.7 4.4 -4.4
v 3.1 2 -0.8
v 3.1 2 -1.7
v 3.1 2 -3.8
v 3.1 2 -4.7
v 3.1 2.3 0
v 3.1 2.3 -0.8
v 3.1 2.3 -1.1
v 3.1 2.3 -1.4
v 3.1 2.3 -1.7
v 3.1 2.3 -3.8
v 3.1 2.3 -4.1
v 3.1 2.3 -4.4
v 3.1 2.3 -4.7
v 3.1 2.3 -5
v 3.1 2.6 0
v 3.1 2.6 -0.8
v 3.1 2.6 -1.1
v 3.1 2.6 -1.4
v 3.1 2.6 -1.7
v 3.1 2.6 -3.8
v 3.1 2.6 -4.1
v 3.1 2.6 -4.4
v 3.1 2.6 -4.7
v 3.1 2.6 -5
v 3.1 2.9 0
v 3.1 2.9 -0.8
v 3.1 2.9 -1.7
v 3.1 2.9 -3.8
v 3.1 2.9 -4.7
v 3.1 2.9 -5
v 3.1 3.2 -2
v 3.1 3.2 -2.8
v 3.1 3.5 0
v 3.1 3.5 -2
v 3.1 3.5 -2.8
v 3.1 3.5 -5
v 3.4 3.2 -2
v 3.4 3.2 -2.8
v 3.4 3.5 -2
v 3.4 3.5 -2.8
v 0.3 2.3 0
v 0.3 2.6 0
v 0.3 2.9 0
v 0.3 3.5 0
v 0.7 2.9 0
v 0.7 3.2 0
v 1 2.9 0
v 1 3.2 0
v 1 3.5 0
v 1.2 2.3 0
v 1.2 2.6 0
v 2.2 2.3 0
v 2.2 2.6 0
v 2.4 2.9 0
v 2.4 3.2 0
v 2.4 3.5 0
v 2.7 2.9 0
v 2.7 3.2 0
v 3.1 2.3 0
v 3.1 2.6 0
v 3.1 2.9 0
v 3.1 3.5 0
v 1.2 2.3 -0.5
v 1.2 2.6 -0.5
v 2.2 2.3 -0.5
v 2.2 2.6 -0.5
v 0.3 2 -0.8
v 0.3 2.3 -0.8
v 1.2 2 -0.8
v 1.2 2.3 -0.8
v 2.2 2 -0.8
v 2.2 2.3 -0.8
v 3.1 2 -0.8
v 3.1 2.3 -0.8
v 0.7 3.5 -1.7
v 0.7 4.4 -1.7
v 1 3.5 -1.7
v 1 4.1 -1.7
v 2.4 3.5 -1.7
v 2.4 4.1 -1.7
v 2.7 3.5 -1.7
v 2.7 4.4 -1.7
v 0 3.2 -2
v 0 3.5 -2
v 0.3 3.2 -2
v 0.3 3.5 -2
v 3.1 3.2 -2
v 3.1 3.5 -2
v 3.4 3.2 -2
v 3.4 3.5 -2
v 0.3 2 -3.8
v 0.3 2.3 -3.8
v 1.2 2 -3.8
v 1.2 2.3 -3.8
v 2.2 2 -3.8
v 2.2 2.3 -3.8
v 3.1 2 -3.8
v 3.1 2.3 -3.8
v 0.3 2 -1.7
v 0.3 2.3 -1.7
v 1.2 2 -1.7
v 1.2 2.3 -1.7
v 2.2 2 -1.7
v 2.2 2.3 -1.7
v 3.1 2 -1.7
v 3.1 2.3 -1.7
v 0 3.2 -2.8
v 0 3.5 -2.8
v 0.3 3.2 -2.8
v 0.3 3.5 -2.8
v 3.1 3.2 -2.8
v 3.1 3.5 -2.8
v 3.4 3.2 -2.8
v 3.4 3.5 -2.8
v 0.7 3.5 -4.4
v 0.7 4.4 -4.4
v 1 3.5 -4.4
v 1 4.1 -4.4
v 2.4 3.5 -4.4
v 2.4 4.1 -4.4
v 2.7 3.5 -4.4
v 2.7 4.4 -4.4
v 0.3 2 -4.7
v 0.3 2.3 -4.7
v 1.2 2 -4.7
v 1.2 2.3 -4.7
v 2.2 2 -4.7
v 2.2 2.3 -4.7
v 3.1 2 -4.7
v 3.1 2.3 -4.7
v 0.3 2.3 -5
v 0.3 2.6 -5
v 0.3 2.9 -5
v 0.3 3.5 -5
v 1 3 -5
v 1 3.5 -5
v 2.4 3 -5
v 2.4 3.5 -5
v 3.1 2.3 -5
v 3.1 2.6 -5
v 3.1 2.9 -5
v 3.1 3.5 -5
v 0.3 2 -0.8
v 1.2 2 -0.8
v 2.2 2 -0.8
v 3.1 2 -0.8
v 0.3 2 -1.7
v 1.2 2 -1.7
v 2.2 2 -1.7
v 3.1 2 -1.7
v 0.3 2 -3.8
v 1.2 2 -3.8
v 2.2 2 -3.8
v 3.1 2 -3.8
v 0.3 2 -4.7
v 1.2 2 -4.7
v 2.2 2 -4.7
v 3.1 2 -4.7
v 0.3 2.3 0
v 1.2 2.3 0
v 2.2 2.3 0
v 3.1 2.3 0
v 1.2 2.3 -0.5
v 2.2 2.3 -0.5
v 0.3 2.3 -0.8
v 1.2 2.3 -0.8
v 2.2 2.3 -0.8
v 3.1 2.3 -0.8
v 0.3 2.3 -1.7
v 1.2 2.3 -1.7
v 2.2 2.3 -1.7
v 3.1 2.3 -1.7
v 0.3 2.3 -3.8
v 1.2 2.3 -3.8
v 2.2 2.3 -3.8
v 3.1 2.3 -3.8
v 0.3 2.3 -4.7
v 1.2 2.3 -4.7
v 2.2 2.3 -4.7
v 3.1 2.3 -4.7
v 0.3 2.3 -5
v 3.1 2.3 -5
v 1.2 2.6 0
v 2.2 2.6 0
v 1.2 2.6 -0.5
v 2.2 2.6 -0.5
v 0 3.2 -2
v 0.3 3.2 -2
v 3.1 3.2 -2
v 3.4 3.2 -2
v 0 3.2 -2.8
v 0.3 3.2 -2.8
v 3.1 3.2 -2.8
v 3.4 3.2 -2.8
v 0.3 3.5 0
v 1 3.5 0
v 2.4 3.5 0
v 3.1 3.5 0
v 0.7 3.5 -1.7
v 1 3.5 -1.7
v 2.4 3.5 -1.7
v 2.7 3.5 -1.7
v 0 3.5 -2
v 0.3 3.5 -2
v 0.7 3.5 -2
v 2.7 3.5 -2
v 3.1 3.5 -2
v 3.4 3.5 -2
v 0 3.5 -2.8
v 0.3 3.5 -2.8
v 3.1 3.5 -2.8
v 3.4 3.5 -2.8
v 0.7 3.5 -3.5
v 2.7 3.5 -3.5
v 0.7 3.5 -3.8
v 2.7 3.5 -3.8
v 0.7 3.5 -4.1
v 2.7 3.5 -4.1
v 0.7 3.5 -4.4
v 1 3.5 -4.4
v 2.4 3.5 -4.4
v 2.7 3.5 -4.4
v 0.3 3.5 -5
v 1 3.5 -5
v 2.4 3.5 -5
v 3.1 3.5 -5
v 0.7 4.4 -1.7
v 2.7 4.4 -1.7
v 0.7 4.4 -4.4
v 2.7 4.4 -4.4

# faces
f 3/3/1 2/3/1 1/3/1
f 4/3/1 2/3/1 3/3/1
f 10/5/1 6/5/1 5/5/1
f 11/5/1 6/5/1 10/5/1
f 12/5/1 6/5/1 11/5/1
f 13/5/1 6/5/1 12/5/1
f 14/5/1 8/5/1 7/5/1
f 15/5/1 8/5/1 14/5/1
f 16/5/1 8/5/1 15/5/1
f 17/5/1 8/5/1 16/5/1
f 19/4/1 10/4/1 9/4/1
f 20/5/1 11/5/1 10/5/1
f 20/4/1 10/4/1 19/4/1
f 21/1/1 12/1/1 11/1/1
f 21/5/1 11/5/1 20/5/1
f 22/5/1 13/5/1 12/5/1
f 22/1/1 12/1/1 21/1/1
f 23/4/1 14/4/1 13/4/1
f 23/5/1 13/5/1 22/5/1
f 24/5/1 15/5/1 14/5/1
f 24/4/1 14/4/1 23/4/1
f 25/1/1 16/1/1 15/1/1
f 25/5/1 15/5/1 24/5/1
f 26/5/1 17/5/1 16/5/1
f 26/1/1 16/1/1 25/1/1
f 27/4/1 18/4/1 17/4/1
f 27/5/1 17/5/1 26/5/1
f 28/4/1 18/4/1 27/4/1
f 29/3/1 20/3/1 19/3/1
f 30/5/1 21/5/1 20/5/1
f 30/3/1 20/3/1 29/3/1
f 30/5/1 22/5/1 21/5/1
f 30/5/1 23/5/1 22/5/1
f 31/3/1 24/3/1 23/3/1
f 31/5/1 23/5/1 30/5/1
f 32/5/1 26/5/1 25/5/1
f 32/3/1 24/3/1 31/3/1
f 32/5/1 27/5/1 26/5/1
f 32/5/1 25/5/1 24/5/1
f 33/3/1 28/3/1 27/3/1
f 33/5/1 27/5/1 32/5/1
f 34/3/1 28/3/1 33/3/1
f 35/2/1 31/2/1 30/2/1
f 35/2/1 32/2/1 31/2/1
f 35/2/1 34/2/1 33/2/1
f 35/2/1 33/2/1 32/2/1
f 35/2/1 30/2/1 29/2/1
f 36/2/1 34/2/1 35/2/1
f 37/2/1 35/2/1 29/2/1
f 38/2/1 35/2/1 37/2/1
f 39/2/1 34/2/1 36/2/1
f 40/2/1 34/2/1 39/2/1
f 47/1/1 42/1/1 41/1/1
f 47/5/1 43/5/1 42/5/1
f 48/1/1 44/1/1 43/1/1
f 48/5/1 43/5/1 47/5/1
f 49/5/1 45/5/1 44/5/1
f 49/1/1 44/1/1 48/1/1
f 50/1/1 46/1/1 45/1/1
f 50/5/1 45/5/1 49/5/1
f 51/1/1 49/1/1 48/1/1
f 51/1/1 48/1/1 47/1/1
f 51/1/1 50/1/1 49/1/1
f 51/1/1 47/1/1 41/1/1
f 52/1/1 46/1/1 50/1/1
f 52/1/1 50/1/1 51/1/1
f 59/5/1 54/5/1 53/5/1
f 60/5/1 54/5/1 59/5/1
f 61/5/1 56/5/1 55/5/1
f 62/5/1 56/5/1 61/5/1
f 63/4/1 58/4/1 57/4/1
f 64/4/1 58/4/1 63/4/1
f 65/5/2 66/5/2 71/5/2
f 71/5/2 66/5/2 72/5/2
f 67/5/2 68/5/2 73/5/2
f 73/5/2 68/5/2 74/5/2
f 69/4/2 70/4/2 75/4/2
f 75/4/2 70/4/2 76/4/2
f 77/1/2 78/1/2 83/1/2
f 78/5/2 79/5/2 83/5/2
f 79/1/2 80/1/2 84/1/2
f 83/5/2 79/5/2 84/5/2
f 80/5/2 81/5/2 85/5/2
f 84/1/2 80/1/2 85/1/2
f 81/1/2 82/1/2 86/1/2
f 85/5/2 81/5/2 86/5/2
f 84/1/2 85/1/2 87/1/2
f 83/1/2 84/1/2 87/1/2
f 85/1/2 86/1/2 87/1/2
f 77/1/2 83/1/2 87/1/2
f 86/1/2 82/1/2 88/1/2
f 87/1/2 86/1/2 88/1/2
f 89/5/2 90/5/2 94/5/2
f 94/5/2 90/5/2 95/5/2
f 95/5/2 90/5/2 96/5/2
f 96/5/2 90/5/2 97/5/2
f 91/5/2 92/5/2 98/5/2
f 98/5/2 92/5/2 99/5/2
f 99/5/2 92/5/2 100/5/2
f 100/5/2 92/5/2 101/5/2
f 93/4/2 94/4/2 103/4/2
f 94/5/2 95/5/2 104/5/2
f 103/4/2 94/4/2 104/4/2
f 95/1/2 96/1/2 105/1/2
f 104/5/2 95/5/2 105/5/2
f 96/5/2 97/5/2 106/5/2
f 105/1/2 96/1/2 106/1/2
f 97/4/2 98/4/2 107/4/2
f 106/5/2 97/5/2 107/5/2
f 98/5/2 99/5/2 108/5/2
f 107/4/2 98/4/2 108/4/2
f 99/1/2 100/1/2 109/1/2
f 108/5/2 99/5/2 109/5/2
f 100/5/2 101/5/2 110/5/2
f 109/1/2 100/1/2 110/1/2
f 101/4/2 102/4/2 111/4/2
f 110/5/2 101/5/2 111/5/2
f 111/4/2 102/4/2 112/4/2
f 103/3/2 104/3/2 113/3/2
f 104/5/2 105/5/2 114/5/2
f 113/3/2 104/3/2 114/3/2
f 105/5/2 106/5/2 114/5/2
f 106/5/2 107/5/2 114/5/2
f 107/3/2 108/3/2 115/3/2
f 114/5/2 107/5/2 115/5/2
f 109/5/2 110/5/2 116/5/2
f 115/3/2 108/3/2 116/3/2
f 110/5/2 111/5/2 116/5/2
f 108/5/2 109/5/2 116/5/2
f 111/3/2 112/3/2 117/3/2
f 116/5/2 111/5/2 117/5/2
f 117/3/2 112/3/2 118/3/2
f 114/2/2 115/2/2 119/2/2
f 115/2/2 116/2/2 119/2/2
f 117/2/2 118/2/2 119/2/2
f 116/2/2 117/2/2 119/2/2
f 113/2/2 114/2/2 119/2/2
f 119/2/2 118/2/2 120/2/2
f 113/2/2 119/2/2 121/2/2
f 121/2/2 119/2/2 122/2/2
f 120/2/2 118/2/2 123/2/2
f 123/2/2 118/2/2 124/2/2
f 125/3/2 126/3/2 127/3/2
f 127/3/2 126/3/2 128/3/2
f 133/3/3 131/3/3 130/3/3
f 133/2/3 132/2/3 131/2/3
f 134/2/3 132/2/3 133/2/3
f 135/3/3 133/3/3 130/3/3
f 135/1/3 134/1/3 133/1/3
f 136/2/3 132/2/3 134/2/3
f 136/1/3 134/1/3 135/1/3
f 137/2/3 132/2/3 136/2/3
f 138/4/3 130/4/3 129/4/3
f 139/3/3 135/3/3 130/3/3
f 139/4/3 130/4/3 138/4/3
f 139/3/3 136/3/3 135/3/3
f 139/3/3 137/3/3 136/3/3
f 141/3/3 137/3/3 139/3/3
f 142/3/3 137/3/3 141/3/3
f 143/3/3 137/3/3 142/3/3
f 144/3/3 137/3/3 143/3/3
f 145/3/3 142/3/3 141/3/3
f 145/1/3 143/1/3 142/1/3
f 146/2/3 144/2/3 143/2/3
f 146/1/3 143/1/3 145/1/3
f 147/4/3 141/4/3 140/4/3
f 148/3/3 145/3/3 141/3/3
f 148/4/3 141/4/3 147/4/3
f 149/2/3 146/2/3 145/2/3
f 149/3/3 145/3/3 148/3/3
f 150/2/3 144/2/3 146/2/3
f 150/2/3 146/2/3 149/2/3
f 153/3/3 152/3/3 151/3/3
f 154/3/3 152/3/3 153/3/3
f 157/5/3 156/5/3 155/5/3
f 158/5/3 156/5/3 157/5/3
f 161/5/3 160/5/3 159/5/3
f 162/5/3 160/5/3 161/5/3
f 165/1/3 164/1/3 163/1/3
f 166/1/3 164/1/3 165/1/3
f 167/5/3 166/5/3 165/5/3
f 168/1/3 164/1/3 166/1/3
f 168/5/3 166/5/3 167/5/3
f 169/1/3 168/1/3 167/1/3
f 170/1/3 164/1/3 168/1/3
f 170/1/3 168/1/3 169/1/3
f 173/3/3 172/3/3 171/3/3
f 174/3/3 172/3/3 173/3/3
f 177/3/3 176/3/3 175/3/3
f 178/3/3 176/3/3 177/3/3
f 181/5/3 180/5/3 179/5/3
f 182/5/3 180/5/3 181/5/3
f 185/5/3 184/5/3 183/5/3
f 186/5/3 184/5/3 185/5/3
f 187/5/4 188/5/4 189/5/4
f 189/5/4 188/5/4 190/5/4
f 191/5/4 192/5/4 193/5/4
f 193/5/4 192/5/4 194/5/4
f 195/3/4 196/3/4 197/3/4
f 197/3/4 196/3/4 198/3/4
f 199/3/4 200/3/4 201/3/4
f 201/3/4 200/3/4 202/3/4
f 203/1/4 204/1/4 205/1/4
f 205/1/4 204/1/4 206/1/4
f 205/5/4 206/5/4 207/5/4
f 206/1/4 204/1/4 208/1/4
f 207/5/4 206/5/4 208/5/4
f 207/1/4 208/1/4 209/1/4
f 208/1/4 204/1/4 210/1/4
f 209/1/4 208/1/4 210/1/4
f 211/5/4 212/5/4 213/5/4
f 213/5/4 212/5/4 214/5/4
f 215/5/4 216/5/4 217/5/4
f 217/5/4 216/5/4 218/5/4
f 221/2/4 222/2/4 223/2/4
f 223/2/4 222/2/4 224/2/4
f 221/2/4 223/2/4 225/2/4
f 223/3/4 224/3/4 225/3/4
f 225/3/4 224/3/4 226/3/4
f 219/4/4 220/4/4 227/4/4
f 220/3/4 221/3/4 228/3/4
f 227/4/4 220/4/4 228/4/4
f 221/2/4 225/2/4 229/2/4
f 228/3/4 221/3/4 229/3/4
f 225/2/4 226/2/4 229/2/4
f 229/2/4 226/2/4 230/2/4
f 235/5/5 232/5/5 231/5/5
f 236/5/5 232/5/5 235/5/5
f 237/5/5 234/5/5 233/5/5
f 238/5/5 234/5/5 237/5/5
f 243/5/5 240/5/5 239/5/5
f 244/5/5 240/5/5 243/5/5
f 245/5/5 242/5/5 241/5/5
f 246/5/5 242/5/5 245/5/5
f 251/4/5 248/4/5 247/4/5
f 252/4/5 250/4/5 249/4/5
f 253/4/5 251/4/5 247/4/5
f 254/3/5 252/3/5 251/3/5
f 254/4/5 251/4/5 253/4/5
f 255/4/5 250/4/5 252/4/5
f 255/3/5 252/3/5 254/3/5
f 256/4/5 250/4/5 255/4/5
f 258/3/5 255/3/5 254/3/5
f 259/3/5 255/3/5 258/3/5
f 261/4/5 258/4/5 257/4/5
f 262/3/5 259/3/5 258/3/5
f 262/4/5 258/4/5 261/4/5
f 263/4/5 260/4/5 259/4/5
f 263/3/5 259/3/5 262/3/5
f 264/4/5 260/4/5 263/4/5
f 266/3/5 263/3/5 262/3/5
f 267/3/5 263/3/5 266/3/5
f 269/4/5 266/4/5 265/4/5
f 269/4/5 268/4/5 267/4/5
f 269/4/5 267/4/5 266/4/5
f 270/4/5 268/4/5 269/4/5
f 273/3/5 272/3/5 271/3/5
f 274/3/5 272/3/5 273/3/5
f 279/3/5 276/3/5 275/3/5
f 280/3/5 276/3/5 279/3/5
f 281/3/5 278/3/5 277/3/5
f 282/3/5 278/3/5 281/3/5
f 283/2/6 284/2/6 287/2/6
f 284/3/6 285/3/6 288/3/6
f 287/2/6 284/2/6 288/2/6
f 285/2/6 286/2/6 289/2/6
f 288/3/6 285/3/6 289/3/6
f 289/2/6 286/2/6 290/2/6
f 283/2/6 287/2/6 292/2/6
f 292/2/6 287/2/6 293/2/6
f 290/2/6 286/2/6 294/2/6
f 294/2/6 286/2/6 295/2/6
f 291/3/6 292/3/6 297/3/6
f 292/2/6 293/2/6 298/2/6
f 297/3/6 292/3/6 298/3/6
f 295/3/6 296/3/6 299/3/6
f 294/2/6 295/2/6 299/2/6
f 299/3/6 296/3/6 300/3/6
f 298/2/6 293/2/6 301/2/6
f 294/2/6 299/2/6 302/2/6
f 298/2/6 301/2/6 303/2/6
f 302/2/6 299/2/6 304/2/6
f 298/2/6 303/2/6 305/2/6
f 304/2/6 299/2/6 306/2/6
f 298/2/6 305/2/6 307/2/6
f 306/2/6 299/2/6 310/2/6
f 298/2/6 307/2/6 311/2/6
f 307/2/6 308/2/6 311/2/6
f 308/3/6 309/3/6 312/3/6
f 311/2/6 308/2/6 312/2/6
f 309/2/6 310/2/6 313/2/6
f 312/3/6 309/3/6 313/3/6
f 310/2/6 299/2/6 314/2/6
f 313/2/6 310/2/6 314/2/6
f 315/1/6 316/1/6 317/1/6
f 317/1/6 316/1/6 318/1/6
