# MagicaVoxel @ Ephtracy

# group
o 

# material
mtllib laneroad2.mtl
usemtl palette

# normals
vn -1 0 0
vn 1 0 0
vn 0 0 1
vn 0 0 -1
vn 0 -1 0
vn 0 1 0

# texcoords
vt 0.470703 0.5
vt 0.541016 0.5
vt 0.572266 0.5

# verts
v 0 2 0
v 0 2 -9.6
v 0 2.1 0
v 0 2.1 -9.6
v 0 2.2 0
v 0 2.2 -9.6
v 0.8 2 0
v 0.8 2 -9.6
v 0.8 2.2 0
v 0.8 2.2 -9.6
v 0 2 0
v 0 2.1 0
v 0 2.2 0
v 0.6 2 0
v 0.6 2.1 0
v 0.8 2 0
v 0.8 2.2 0
v 0 2 -9.6
v 0 2.1 -9.6
v 0 2.2 -9.6
v 0.6 2 -9.6
v 0.6 2.1 -9.6
v 0.8 2 -9.6
v 0.8 2.2 -9.6
v 0 2 0
v 0.6 2 0
v 0.8 2 0
v 0.2 2 -2.4
v 0.6 2 -2.4
v 0.3 2 -4.2
v 0.6 2 -4.2
v 0.2 2 -6.7
v 0.3 2 -6.7
v 0 2 -9.6
v 0.6 2 -9.6
v 0.8 2 -9.6
v 0 2.2 0
v 0.8 2.2 0
v 0 2.2 -9.6
v 0.8 2.2 -9.6

# faces
f 3/2/1 2/2/1 1/2/1
f 4/2/1 2/2/1 3/2/1
f 5/3/1 4/3/1 3/3/1
f 6/3/1 4/3/1 5/3/1
f 7/3/2 8/3/2 9/3/2
f 9/3/2 8/3/2 10/3/2
f 14/2/3 12/2/3 11/2/3
f 15/3/3 13/3/3 12/3/3
f 15/2/3 12/2/3 14/2/3
f 16/3/3 15/3/3 14/3/3
f 17/3/3 13/3/3 15/3/3
f 17/3/3 15/3/3 16/3/3
f 18/2/4 19/2/4 21/2/4
f 19/3/4 20/3/4 22/3/4
f 21/2/4 19/2/4 22/2/4
f 21/3/4 22/3/4 23/3/4
f 22/3/4 20/3/4 24/3/4
f 23/3/4 22/3/4 24/3/4
f 28/2/5 26/2/5 25/2/5
f 29/3/5 27/3/5 26/3/5
f 29/2/5 26/2/5 28/2/5
f 30/1/5 29/1/5 28/1/5
f 31/3/5 27/3/5 29/3/5
f 31/1/5 29/1/5 30/1/5
f 32/2/5 28/2/5 25/2/5
f 32/1/5 30/1/5 28/1/5
f 33/2/5 31/2/5 30/2/5
f 33/1/5 30/1/5 32/1/5
f 34/2/5 32/2/5 25/2/5
f 34/2/5 33/2/5 32/2/5
f 35/3/5 27/3/5 31/3/5
f 35/2/5 33/2/5 34/2/5
f 35/2/5 31/2/5 33/2/5
f 36/3/5 27/3/5 35/3/5
f 37/3/6 38/3/6 39/3/6
f 39/3/6 38/3/6 40/3/6
