# MagicaVoxel @ Ephtracy

# group
o 

# material
mtllib lilipad.mtl
usemtl palette

# normals
vn -1 0 0
vn 1 0 0
vn 0 0 1
vn 0 0 -1
vn 0 -1 0
vn 0 1 0

# texcoords
vt 0.533203 0.5
vt 0.537109 0.5

# verts
v 0.3 2 -0.9
v 0.3 2 -3.1
v 0.3 2.2 -1.5
v 0.3 2.2 -1.9
v 0.3 2.3 -0.9
v 0.3 2.3 -1.5
v 0.3 2.3 -1.9
v 0.3 2.3 -3.1
v 0.9 2 -0.3
v 0.9 2 -0.9
v 0.9 2.3 -0.3
v 0.9 2.3 -0.9
v 3.1 2 -0.3
v 3.1 2 -3.1
v 3.1 2.3 -0.3
v 3.1 2.3 -3.1
v 0.9 2 -0.3
v 0.9 2.3 -0.3
v 1.5 2.2 -0.3
v 1.5 2.3 -0.3
v 1.9 2.2 -0.3
v 1.9 2.3 -0.3
v 3.1 2 -0.3
v 3.1 2.3 -0.3
v 0.3 2 -0.9
v 0.3 2.3 -0.9
v 0.9 2 -0.9
v 0.9 2.3 -0.9
v 0.3 2 -3.1
v 0.3 2.3 -3.1
v 3.1 2 -3.1
v 3.1 2.3 -3.1
v 0.9 2 -0.3
v 3.1 2 -0.3
v 0.3 2 -0.9
v 0.9 2 -0.9
v 0.3 2 -3.1
v 3.1 2 -3.1
v 0.9 2.3 -0.3
v 1.5 2.3 -0.3
v 1.9 2.3 -0.3
v 3.1 2.3 -0.3
v 0.3 2.3 -0.9
v 0.9 2.3 -0.9
v 0.3 2.3 -1.5
v 1.5 2.3 -1.5
v 0.3 2.3 -1.9
v 1.9 2.3 -1.9
v 0.3 2.3 -3.1
v 3.1 2.3 -3.1

# faces
f 3/1/1 2/1/1 1/1/1
f 4/1/1 2/1/1 3/1/1
f 5/1/1 3/1/1 1/1/1
f 6/2/1 4/2/1 3/2/1
f 6/1/1 3/1/1 5/1/1
f 7/1/1 2/1/1 4/1/1
f 7/2/1 4/2/1 6/2/1
f 8/1/1 2/1/1 7/1/1
f 11/1/1 10/1/1 9/1/1
f 12/1/1 10/1/1 11/1/1
f 13/1/2 14/1/2 15/1/2
f 15/1/2 14/1/2 16/1/2
f 19/1/3 18/1/3 17/1/3
f 20/1/3 18/1/3 19/1/3
f 21/1/3 19/1/3 17/1/3
f 21/2/3 20/2/3 19/2/3
f 22/2/3 20/2/3 21/2/3
f 23/1/3 21/1/3 17/1/3
f 23/1/3 22/1/3 21/1/3
f 24/1/3 22/1/3 23/1/3
f 27/1/3 26/1/3 25/1/3
f 28/1/3 26/1/3 27/1/3
f 29/1/4 30/1/4 31/1/4
f 31/1/4 30/1/4 32/1/4
f 36/1/5 34/1/5 33/1/5
f 37/1/5 36/1/5 35/1/5
f 38/1/5 34/1/5 36/1/5
f 38/1/5 36/1/5 37/1/5
f 39/1/6 40/1/6 44/1/6
f 43/1/6 44/1/6 45/1/6
f 40/2/6 41/2/6 46/2/6
f 45/1/6 44/1/6 46/1/6
f 44/1/6 40/1/6 46/1/6
f 45/2/6 46/2/6 47/2/6
f 41/1/6 42/1/6 48/1/6
f 47/2/6 46/2/6 48/2/6
f 46/2/6 41/2/6 48/2/6
f 47/1/6 48/1/6 49/1/6
f 48/1/6 42/1/6 50/1/6
f 49/1/6 48/1/6 50/1/6
