# MagicaVoxel @ Ephtracy

# group
o 

# material
mtllib tree1.mtl
usemtl palette

# normals
vn -1 0 0
vn 1 0 0
vn 0 0 1
vn 0 0 -1
vn 0 -1 0
vn 0 1 0

# texcoords
vt 0.626953 0.5
vt 0.630859 0.5
vt 0.634766 0.5

# verts
v 0.3 3.5 -0.3
v 0.3 3.5 -3.1
v 0.3 3.8 -0.3
v 0.3 3.8 -3.1
v 0.3 5.3 -0.3
v 0.3 5.3 -3.1
v 0.3 5.6 -0.3
v 0.3 5.6 -3.1
v 0.3 7.1 -0.3
v 0.3 7.1 -3.1
v 0.3 7.4 -0.3
v 0.3 7.4 -3.1
v 1 2 -0.9
v 1 2 -2.5
v 1 3.5 -0.9
v 1 3.5 -2.5
v 2.4 2 -0.9
v 2.4 2 -2.5
v 2.4 3.5 -0.9
v 2.4 3.5 -2.5
v 3.1 3.5 -0.3
v 3.1 3.5 -3.1
v 3.1 3.8 -0.3
v 3.1 3.8 -3.1
v 3.1 5.3 -0.3
v 3.1 5.3 -3.1
v 3.1 5.6 -0.3
v 3.1 5.6 -3.1
v 3.1 7.1 -0.3
v 3.1 7.1 -3.1
v 3.1 7.4 -0.3
v 3.1 7.4 -3.1
v 0.3 3.5 -0.3
v 0.3 3.8 -0.3
v 0.3 5.3 -0.3
v 0.3 5.6 -0.3
v 0.3 7.1 -0.3
v 0.3 7.4 -0.3
v 3.1 3.5 -0.3
v 3.1 3.8 -0.3
v 3.1 5.3 -0.3
v 3.1 5.6 -0.3
v 3.1 7.1 -0.3
v 3.1 7.4 -0.3
v 1 2 -0.9
v 1 3.5 -0.9
v 2.4 2 -0.9
v 2.4 3.5 -0.9
v 1 2 -2.5
v 1 3.5 -2.5
v 2.4 2 -2.5
v 2.4 3.5 -2.5
v 0.3 3.5 -3.1
v 0.3 3.8 -3.1
v 0.3 5.3 -3.1
v 0.3 5.6 -3.1
v 0.3 7.1 -3.1
v 0.3 7.4 -3.1
v 3.1 3.5 -3.1
v 3.1 3.8 -3.1
v 3.1 5.3 -3.1
v 3.1 5.6 -3.1
v 3.1 7.1 -3.1
v 3.1 7.4 -3.1
v 1 2 -0.9
v 2.4 2 -0.9
v 1 2 -2.5
v 2.4 2 -2.5
v 0.3 3.5 -0.3
v 3.1 3.5 -0.3
v 1 3.5 -0.9
v 2.4 3.5 -0.9
v 1 3.5 -2.5
v 2.4 3.5 -2.5
v 0.3 3.5 -3.1
v 3.1 3.5 -3.1
v 0.3 7.4 -0.3
v 3.1 7.4 -0.3
v 0.3 7.4 -3.1
v 3.1 7.4 -3.1

# faces
f 3/1/1 2/1/1 1/1/1
f 4/1/1 2/1/1 3/1/1
f 5/2/1 4/2/1 3/2/1
f 6/2/1 4/2/1 5/2/1
f 7/1/1 6/1/1 5/1/1
f 8/1/1 6/1/1 7/1/1
f 9/2/1 8/2/1 7/2/1
f 10/2/1 8/2/1 9/2/1
f 11/1/1 10/1/1 9/1/1
f 12/1/1 10/1/1 11/1/1
f 15/3/1 14/3/1 13/3/1
f 16/3/1 14/3/1 15/3/1
f 17/3/2 18/3/2 19/3/2
f 19/3/2 18/3/2 20/3/2
f 21/1/2 22/1/2 23/1/2
f 23/1/2 22/1/2 24/1/2
f 23/2/2 24/2/2 25/2/2
f 25/2/2 24/2/2 26/2/2
f 25/1/2 26/1/2 27/1/2
f 27/1/2 26/1/2 28/1/2
f 27/2/2 28/2/2 29/2/2
f 29/2/2 28/2/2 30/2/2
f 29/1/2 30/1/2 31/1/2
f 31/1/2 30/1/2 32/1/2
f 39/1/3 34/1/3 33/1/3
f 40/2/3 35/2/3 34/2/3
f 40/1/3 34/1/3 39/1/3
f 41/1/3 36/1/3 35/1/3
f 41/2/3 35/2/3 40/2/3
f 42/2/3 37/2/3 36/2/3
f 42/1/3 36/1/3 41/1/3
f 43/1/3 38/1/3 37/1/3
f 43/2/3 37/2/3 42/2/3
f 44/1/3 38/1/3 43/1/3
f 47/3/3 46/3/3 45/3/3
f 48/3/3 46/3/3 47/3/3
f 49/3/4 50/3/4 51/3/4
f 51/3/4 50/3/4 52/3/4
f 53/1/4 54/1/4 59/1/4
f 54/2/4 55/2/4 60/2/4
f 59/1/4 54/1/4 60/1/4
f 55/1/4 56/1/4 61/1/4
f 60/2/4 55/2/4 61/2/4
f 56/2/4 57/2/4 62/2/4
f 61/1/4 56/1/4 62/1/4
f 57/1/4 58/1/4 63/1/4
f 62/2/4 57/2/4 63/2/4
f 63/1/4 58/1/4 64/1/4
f 67/3/5 66/3/5 65/3/5
f 68/3/5 66/3/5 67/3/5
f 71/1/5 70/1/5 69/1/5
f 72/1/5 70/1/5 71/1/5
f 73/1/5 71/1/5 69/1/5
f 74/1/5 70/1/5 72/1/5
f 75/1/5 73/1/5 69/1/5
f 75/1/5 74/1/5 73/1/5
f 76/1/5 70/1/5 74/1/5
f 76/1/5 74/1/5 75/1/5
f 77/1/6 78/1/6 79/1/6
f 79/1/6 78/1/6 80/1/6
